<?xml version="1.0" encoding="UTF-8"?>
<!DOCTYPE svg PUBLIC "-//W3C//DTD SVG 1.1//EN" "http://www.w3.org/Graphics/SVG/1.1/DTD/svg11.dtd">
<!-- Creator: CorelDRAW 2021 (64-Bit) -->
<svg xmlns="http://www.w3.org/2000/svg" xml:space="preserve" width="0.513524in" height="0.459768in" version="1.1" shape-rendering="geometricPrecision" text-rendering="geometricPrecision" image-rendering="optimizeQuality" fill-rule="evenodd" clip-rule="evenodd"
viewBox="0 0 194.07 173.76"
 xmlns:xlink="http://www.w3.org/1999/xlink"
 xmlns:xodm="http://www.corel.com/coreldraw/odm/2003">
 <g id="Layer_x0020_1">
  <metadata id="CorelCorpID_0Corel-Layer"/>
  <g id="_1551601915616">
   <path fill="white" d="M135.21 56c-3.36,14.83 2.39,25.28 -8.4,47.19 -6.66,13.53 -10.44,16.51 -16.46,25.94l-5.15 9c12.77,0 25.66,2.47 33.95,11.15 3.52,3.69 3.62,4.97 5.91,9.47l7.86 -8.56c5.4,-6.43 14.6,-23.37 21.6,-30.9 0.46,-0.49 1.83,-1.91 1.97,-2.14 3.81,-6.46 -16.35,-16.16 -2.2,-33.77 1.05,-1.3 3.04,-3.29 4.45,-4.24 2.39,-1.61 3.72,-1.56 6.9,-2.11 -1.04,-4.34 -2.48,-8.09 -3.33,-11.96 -0.76,-3.44 -0.42,-9.34 -1.11,-13.64 -13.64,4.37 -31.96,0.59 -46,4.54z"/>
   <path fill="white" d="M67.28 118.42c-2.58,-2.34 -9.28,-15.62 -6.56,-24.08 2.89,-8.98 10.54,-9.93 18.21,-13.9 0.1,-8.98 -4.41,-12.33 -4.69,-23.04 -8.04,0.12 -6.55,2.81 -22.85,2.73 -23.94,-0.12 -22.2,-0.77 -22.2,11.42 0.01,9.96 -1.57,21.21 -4.3,30.68 -1.98,6.86 -6.11,14.05 -10.18,20.13 -2.37,3.54 -5.81,8.42 -7.51,12.29 7.03,0.79 11.48,0.64 17.79,2.98 4.91,1.82 10.9,4.24 13.19,7.94 -2.51,-0.78 -4.83,-2.61 -7.94,-3.74 -5.81,-2.12 -21.99,-8.1 -25.27,-1.69 -2.75,5.39 0.22,14.85 2.69,18.85 3.39,5.51 5.15,8.1 14.12,8.09 5.45,-0.01 12.79,-3.86 15.9,-6.29 9,-7.04 3.1,-11.32 2.24,-13.86 2.56,1.25 1.66,3.03 5.68,4.24 1.92,-2.82 3.68,-4.77 5.63,-8.44 4.98,-9.35 8.15,-19 16.04,-24.3z"/>
   <path fill="white" d="M163.06 19.99c2.91,1.75 4.33,5.57 4.68,9.17 0.32,3.26 1.13,9.56 0.51,12.46 -2.29,-4.4 -5.17,-17.63 -5.19,-21.63zm10.86 -0.86c4.62,2.49 5.24,15.43 4.72,20.68 -1.81,-1.96 -2.24,-6.68 -2.92,-9.85 -0.32,-1.53 -1.77,-9.82 -1.8,-10.82zm3.31 -10.84c0.99,-1.07 1.06,-1.65 2.81,-2 6.48,-1.27 9.36,10.15 -9.53,10.69 -14.25,0.41 -14.8,-1.72 -15.67,9.51 -2.94,-6.64 1.21,-0.6 -4.44,-8.08 -4.4,0.03 -3.52,0.25 -6.15,1.85 -1.07,8.18 3.67,15.71 3.24,23.76 -4.86,-4.15 -3.38,-21.93 -6.01,-23.73 -4.21,-1.18 -10.06,-0.13 -12.79,-3.25 -3.15,-3.6 0.95,-8.02 6.05,-6.8 -0.3,4.45 -1.97,2.1 -3.36,4.78 5.62,3.26 24.55,1.46 29.98,-1.35 -0.73,-1.78 -1.18,-1.82 -1.46,-3.02 -0.46,-1.98 0.08,-2.37 0.48,-2.94 1.37,2.05 1.35,3.59 1.01,6.23 9.76,-0.74 10.51,-0.15 18.71,-3 -1.38,-0.8 -1.77,-1.05 -2.88,-2.65zm12.1 35.17c0.28,-7.21 -2.18,-6.38 -2.65,-11.67 -0.27,-3.1 1.18,-9.48 1.61,-13.11 2.32,-19.36 -12.58,-14.43 -28.55,-13.84 -9.55,0.36 -29.25,-0.09 -35.3,9.22 -4.61,7.09 0.44,14.71 1.33,22.82 0.99,8.95 -5.67,14.54 13.06,15.05l40.43 -3.89c5.12,-0.81 7.05,-2.03 10.05,-4.58z"/>
   <path fill="white" d="M24.43 37.91c-0.72,-2.7 -4.28,-8.91 -0.62,-11.74 1.1,2.22 1.94,10.51 2.19,12.95 0.37,3.63 1,9.38 -0.87,12.1 -1.98,-5.13 2.13,-2.69 -0.71,-13.31zm32.35 -9.5c1.9,2.57 3.35,16.06 3.37,20.57 -3.36,-2.05 -3.41,-4.66 -3.52,-9.06 -0.05,-2.02 0.03,-4.08 -0.05,-6.08 -0.04,-1.01 -0.27,-2.24 -0.3,-2.97 -0,-0.05 -0.05,-0.86 -0.03,-1.06 0.22,-1.86 -0.08,-0.58 0.53,-1.4zm9.55 0.08c4.14,3.01 4.9,12.84 4.47,19.39 -2.49,-2.49 -3.62,-14.8 -4.47,-19.39zm-22.76 -1.55c2.42,3.85 1.21,7.03 2.05,12.02 0.78,4.64 2.47,7.73 2.58,12.35 -5.66,-4.18 -2.68,-10.17 -5.06,-21.36 -0.6,-2.84 -0.12,-2.45 0.43,-3.01zm12.35 -11.25c1.29,4.71 4.58,4.54 9.04,2.83 6.34,-2.43 4.71,-4.95 9.17,-4.69 0.25,2.69 0.54,2.05 -0.59,3.82 -4.47,7.02 -35.99,7.06 -43.7,6.92 -8.69,-0.15 -11,-4.86 -8.05,-7.52 4.12,0.74 0.72,2.43 4.36,3.88 3.54,1.41 4.29,-0.6 4.74,-2.96 3.83,4.83 7.18,4.08 8.74,0.13 0.34,-0.85 0.21,-0.78 0.46,-1.57l0.54 -1.49c0.69,1.41 -0.23,2.12 1.1,4.97 2.46,0.71 6.5,0.58 9.34,0.05 6.2,-1.16 3.33,-0.82 4.85,-4.37zm9.02 -4.23c-9.56,1.62 -15.4,2.53 -25.64,1.66 -10.95,-0.92 -18.41,-1.61 -20.86,7.96 -2,7.83 1.1,17.77 0.78,26.24 -0.58,15.19 3.51,12.26 14.51,9.9 15.18,-3.26 19.01,1.31 39.15,-3.2 18.41,-4.12 2.48,-16.28 4.23,-29.45 0.55,-4.12 5.05,-16.04 -12.18,-13.11z"/>
   <path fill="#EC268F" d="M108.7 139.32c12.73,-1.89 33.29,12.79 33.65,19.73 0.55,10.61 -29.83,15.69 -37.62,5.14 -2.44,-3.3 -3.68,-9.47 -3.81,-14.61 -0.17,-7.38 1.58,-9.34 7.78,-10.26zm71.2 -25.99c-1.76,-0.86 -0.81,-0.15 -3.06,-3.72 -2.6,-4.12 -5,-10.42 -4.11,-15.66 1.56,-9.2 4.26,-14.55 13.4,-13.66 8.36,13.43 1.7,28.97 -6.23,33.04zm-44.69 -57.33c14.03,-3.95 32.36,-0.16 46,-4.54 0.7,4.3 0.36,10.2 1.11,13.64 0.85,3.87 2.29,7.62 3.33,11.96 -3.19,0.55 -4.51,0.5 -6.9,2.11 -1.41,0.95 -3.41,2.93 -4.45,4.24 -14.15,17.6 6.02,27.31 2.2,33.77 -0.14,0.24 -1.52,1.65 -1.97,2.14 -7,7.53 -16.2,24.47 -21.6,30.9l-7.86 8.56c-2.29,-4.51 -2.39,-5.78 -5.91,-9.47 -8.28,-8.69 -21.17,-11.15 -33.95,-11.15l5.15 -9c6.01,-9.43 9.79,-12.42 16.46,-25.94 10.79,-21.91 5.04,-32.36 8.4,-47.19zm54.12 -12.53c-3,2.55 -4.93,3.77 -10.05,4.58l-40.43 3.89c-18.74,-0.52 -12.07,-6.11 -13.06,-15.05 -0.9,-8.11 -5.94,-15.73 -1.33,-22.82 6.04,-9.3 25.75,-8.86 35.3,-9.22 15.97,-0.6 30.87,-5.52 28.55,13.84 -0.44,3.62 -1.89,10.01 -1.61,13.11 0.47,5.29 2.93,4.46 2.65,11.67zm-58.53 12.5c1.27,12.01 -0.46,30.53 -4.84,41.72 -9.47,24.22 -39.44,48.83 -25.37,67.97 4.73,6.43 16.78,9.54 28.17,7.47 20.15,-3.66 25.3,-24.38 40.71,-41.38l13.09 -13.81c5.33,-6.33 12.49,-13.16 11.41,-25.54 -0.86,-9.77 -6.11,-18.66 -8.34,-27.96 -5.4,-22.51 10.72,-13.58 7.93,-26.04 -3.42,-15.26 2.54,-23.38 -2.9,-32.07 -3.83,-6.12 -5.04,-4.47 -13.36,-5.6 -13.54,-1.83 -36.14,-0.25 -48.24,5.15 -10.61,4.73 -10.38,11.85 -8.53,25.39 0.39,2.88 0.9,5.65 1.2,8.22 0.43,3.67 -0.37,4.83 -0.36,7.87 0,6.75 5.12,5.57 9.44,8.61z"/>
   <path fill="#EC268F" d="M79.83 99.8c-0.97,4.07 -2.02,6.6 -3.59,9.41 -4.74,8.48 -7.94,8.26 -11.84,-0.2 -4.6,-9.98 -4.27,-14.49 9.29,-23.23 2.99,-1.93 6.49,-4.2 6.69,1.83 0.12,3.62 0.21,8.99 -0.55,12.19zm-12.55 18.62c-7.89,5.3 -11.06,14.95 -16.04,24.3 -1.95,3.67 -3.71,5.62 -5.63,8.44 -4.02,-1.21 -3.12,-2.99 -5.68,-4.24 0.86,2.54 6.77,6.82 -2.24,13.86 -3.11,2.43 -10.45,6.28 -15.9,6.29 -8.97,0.01 -10.73,-2.58 -14.12,-8.09 -2.46,-4 -5.44,-13.47 -2.69,-18.85 3.27,-6.42 19.46,-0.43 25.27,1.69 3.11,1.13 5.44,2.96 7.94,3.74 -2.28,-3.7 -8.28,-6.12 -13.19,-7.94 -6.31,-2.34 -10.76,-2.19 -17.79,-2.98 1.71,-3.87 5.14,-8.75 7.51,-12.29 4.07,-6.08 8.21,-13.26 10.18,-20.13 2.73,-9.47 4.31,-20.72 4.3,-30.68 -0.01,-12.18 -1.74,-11.53 22.2,-11.42 16.3,0.08 14.8,-2.61 22.85,-2.73 0.28,10.71 4.79,14.06 4.69,23.04 -7.67,3.97 -15.32,4.93 -18.21,13.9 -2.72,8.46 3.97,21.74 6.56,24.08zm-2.34 -106.97c17.23,-2.93 12.73,8.99 12.18,13.11 -1.76,13.17 14.17,25.33 -4.23,29.45 -20.14,4.51 -23.98,-0.05 -39.15,3.2 -11,2.36 -15.09,5.29 -14.51,-9.9 0.32,-8.48 -2.77,-18.41 -0.78,-26.24 2.45,-9.57 9.91,-8.89 20.86,-7.96 10.24,0.86 16.08,-0.04 25.64,-1.66zm16.89 13.66c1.29,-13.04 -0.76,-19.39 -15.36,-17.21 -9.81,1.46 -21.57,1.12 -31.78,1.83 -26.97,1.86 -16.94,6.37 -19.49,29.66 -0.48,4.41 -1.57,11.75 -0.85,15.95 1.28,7.48 6.01,7.25 8.64,8.29 6.53,2.58 0.1,22.14 -0.46,27.48 -2.95,28.31 -24.12,41.51 -22.45,61.83 1.14,13.8 22.95,28.63 40.34,9.9 12.99,-14 16.61,-28.33 27.45,-39.82 5.72,-6.06 13.94,-10.96 15.59,-18.05 1.9,-8.17 1.35,-23.4 -1.22,-30.64 -1.17,-3.28 -4.41,-9.66 -4.69,-12.32 -0.49,-4.69 4.76,-6.69 7.19,-9.59 3.05,-3.64 1.16,-9.47 -0.21,-13.37 -1.79,-5.09 -3.35,-7.47 -2.71,-13.94z"/>
   <path fill="white" d="M108.7 139.32c-6.2,0.92 -7.95,2.88 -7.78,10.26 0.12,5.14 1.37,11.31 3.81,14.61 7.79,10.56 38.17,5.47 37.62,-5.14 -0.36,-6.94 -20.91,-21.63 -33.65,-19.73z"/>
   <path fill="white" d="M179.9 113.33c7.93,-4.06 14.59,-19.61 6.23,-33.04 -9.14,-0.9 -11.85,4.46 -13.4,13.66 -0.89,5.24 1.51,11.54 4.11,15.66 2.26,3.57 1.3,2.86 3.06,3.72z"/>
   <path fill="white" d="M79.83 99.8c0.76,-3.2 0.67,-8.57 0.55,-12.19 -0.2,-6.03 -3.7,-3.76 -6.69,-1.83 -13.56,8.74 -13.89,13.25 -9.29,23.23 3.9,8.46 7.1,8.68 11.84,0.2 1.57,-2.81 2.62,-5.34 3.59,-9.41z"/>
   <path fill="#EC268F" d="M170.5 16.99c18.89,-0.54 16.01,-11.96 9.53,-10.69 -1.75,0.34 -1.82,0.93 -2.81,2 1.11,1.6 1.5,1.85 2.88,2.65 -8.2,2.85 -8.95,2.26 -18.71,3 0.34,-2.63 0.36,-4.18 -1.01,-6.23 -0.39,0.56 -0.94,0.95 -0.48,2.94 0.28,1.2 0.73,1.24 1.46,3.02 -5.44,2.8 -24.36,4.6 -29.98,1.35 1.39,-2.68 3.06,-0.33 3.36,-4.78 -5.1,-1.23 -9.2,3.2 -6.05,6.8 2.73,3.12 8.58,2.07 12.79,3.25 2.63,1.8 1.15,19.58 6.01,23.73 0.43,-8.05 -4.31,-15.58 -3.24,-23.76 2.62,-1.6 1.75,-1.82 6.15,-1.85 5.65,7.48 1.5,1.44 4.44,8.08 0.86,-11.23 1.42,-9.1 15.67,-9.51z"/>
   <path fill="#EC268F" d="M55.92 15.68c-1.52,3.55 1.35,3.21 -4.85,4.37 -2.84,0.53 -6.88,0.66 -9.34,-0.05 -1.33,-2.85 -0.41,-3.56 -1.1,-4.97l-0.54 1.49c-0.25,0.8 -0.12,0.72 -0.46,1.57 -1.56,3.94 -4.91,4.7 -8.74,-0.13 -0.45,2.36 -1.2,4.37 -4.74,2.96 -3.64,-1.45 -0.24,-3.13 -4.36,-3.88 -2.96,2.66 -0.64,7.37 8.05,7.52 7.71,0.13 39.23,0.1 43.7,-6.92 1.13,-1.77 0.84,-1.13 0.59,-3.82 -4.46,-0.26 -2.82,2.26 -9.17,4.69 -4.45,1.7 -7.74,1.88 -9.04,-2.83z"/>
   <path fill="#EC268F" d="M167.75 29.16c-0.36,-3.6 -1.78,-7.42 -4.68,-9.17 0.03,4 2.91,17.23 5.19,21.63 0.62,-2.91 -0.19,-9.21 -0.51,-12.46z"/>
   <path fill="#EC268F" d="M60.15 48.98c-0.02,-4.51 -1.47,-18.01 -3.37,-20.57 -0.61,0.83 -0.3,-0.45 -0.53,1.4 -0.03,0.2 0.02,1.01 0.03,1.06 0.03,0.73 0.26,1.97 0.3,2.97 0.08,2 -0,4.06 0.05,6.08 0.11,4.4 0.17,7.01 3.52,9.06z"/>
   <path fill="#EC268F" d="M178.64 39.81c0.52,-5.25 -0.1,-18.19 -4.72,-20.68 0.03,1.01 1.48,9.3 1.8,10.82 0.67,3.17 1.11,7.9 2.92,9.85z"/>
   <path fill="#EC268F" d="M45.62 38.96c-0.84,-4.99 0.38,-8.17 -2.05,-12.02 -0.54,0.56 -1.03,0.16 -0.43,3.01 2.38,11.19 -0.6,17.19 5.06,21.36 -0.11,-4.62 -1.8,-7.71 -2.58,-12.35z"/>
   <path fill="#EC268F" d="M25.14 51.22c1.87,-2.72 1.24,-8.47 0.87,-12.1 -0.25,-2.44 -1.1,-10.73 -2.19,-12.95 -3.67,2.83 -0.11,9.04 0.62,11.74 2.84,10.62 -1.27,8.18 0.71,13.31z"/>
   <path fill="#EC268F" d="M66.33 28.49c0.85,4.59 1.98,16.91 4.47,19.39 0.44,-6.55 -0.32,-16.38 -4.47,-19.39z"/>
  </g>
 </g>
</svg>
