<?xml version="1.0" encoding="UTF-8"?>
<!DOCTYPE svg PUBLIC "-//W3C//DTD SVG 1.1//EN" "http://www.w3.org/Graphics/SVG/1.1/DTD/svg11.dtd">
<!-- Creator: CorelDRAW 2021 (64-Bit) -->
<svg xmlns="http://www.w3.org/2000/svg" xml:space="preserve" width="1.75446in" height="0.336028in" version="1.1" shape-rendering="geometricPrecision" text-rendering="geometricPrecision" image-rendering="optimizeQuality" fill-rule="evenodd" clip-rule="evenodd"
viewBox="0 0 34252.26 6560.27"
 xmlns:xlink="http://www.w3.org/1999/xlink"
 xmlns:xodm="http://www.corel.com/coreldraw/odm/2003">
 <g id="Layer_x0020_1">
  <metadata id="CorelCorpID_0Corel-Layer"/>
  <g id="_2207886450480">
   <path fill="#373435" fill-rule="nonzero" d="M1229.49 3538.27c-39.35,0 -137.05,-8.3 -293.08,-23.83 -9.53,325.2 -14.3,860.16 -14.3,1603.58 0,123.9 -42.89,229.89 -129.9,318.13 -85.7,88.16 -196.54,132.2 -328.82,132.2 -133.36,0 -244.11,-44.04 -332.35,-132.2 -86.93,-89.39 -131.05,-195.46 -131.05,-318.13l0 -974.46c0,-359.87 22.67,-894.75 67.87,-1602.42 42.89,-718.35 65.64,-1255.7 67.95,-1609.49 2.38,-605.21 171.56,-894.68 508.67,-868.54 79.86,-21.44 188.31,-36.89 327.66,-47.58 140.58,-10.76 309.75,-15.53 509.9,-15.53 455.1,0 882.76,147.73 1283.14,443.19 444.26,331.2 665.93,733.88 665.93,1209.27 0,595.61 -235.89,1069.77 -707.67,1421.26 -418.13,309.75 -916.2,464.56 -1493.97,464.56zm171.56 -2637.68c-75.09,0 -140.58,0 -197.84,1.31 -57.11,1.15 -105.92,4.69 -145.27,9.45 0,109.68 -1.15,274.01 -3.54,493.3 -3.61,259.64 -23.9,663.55 -60.8,1211.58 117.98,19.06 197.84,28.52 237.04,28.52 362.17,0 663.63,-86.93 901.82,-259.72 256.18,-183.39 383.62,-427.66 383.62,-731.42 0,-199 -120.29,-375.24 -359.72,-529.04 -231.12,-148.88 -482.46,-223.98 -755.32,-223.98zm6550.04 4689.21c-183.55,-7.15 -369.4,-223.98 -555.18,-650.48 -122.75,-275.24 -228.82,-592.07 -316.9,-950.71 -172.79,26.29 -456.33,52.42 -848.25,78.71 -369.32,26.13 -651.64,57.11 -847.1,92.85 -108.38,256.1 -294.23,642.11 -561.09,1156.78 -102.46,168.02 -243.04,251.42 -424.13,251.42 -127.51,0 -242.96,-44.04 -344.27,-131.05 -102.46,-86.93 -153.65,-199 -153.65,-333.51 0,-119.21 170.33,-521.89 511.06,-1209.35 -33.44,-72.56 -46.5,-140.5 -42.89,-203.68 9.45,-110.76 122.67,-198.92 339.5,-262.02 331.2,-573.08 699.37,-1167.54 1105.59,-1782.28 582.54,-882.76 942.33,-1324.8 1076.92,-1324.8 254.95,0 426.51,154.88 512.29,464.63 46.5,248.96 120.37,623.05 220.44,1121.11 141.73,670.62 314.52,1437.86 519.36,2302.79 16.76,64.33 76.32,217.98 178.78,461.1 83.4,200.15 125.05,350.26 125.05,450.26 0,134.66 -50.04,247.8 -151.26,339.58 -101.3,90.54 -216.91,133.43 -344.27,128.67zm-1300.97 -3583.55c-181.09,312.14 -431.27,737.42 -750.56,1274.68 104.76,-22.6 268.1,-41.66 488.38,-54.8 260.95,-16.68 424.2,-28.59 492.07,-38.12 -56.03,-302.61 -132.2,-696.91 -229.89,-1181.76zm4013.59 718.35c-104.84,376.47 -251.34,944.71 -440.8,1705.96 -44.04,263.33 -86.93,524.28 -128.67,785.15 -95.31,330.05 -271.55,495.61 -528.89,495.61 -160.95,0 -288.31,-54.8 -381.31,-164.41 -79.86,-92.93 -119.06,-203.68 -119.06,-331.2 0,-377.62 80.94,-836.34 241.73,-1378.37 239.5,-812.51 369.4,-1262.85 388.46,-1351.01 66.72,-358.64 135.74,-717.12 206.07,-1075.76 104.84,-493.22 217.98,-822.04 340.73,-985.22 122.67,-164.41 276.4,-246.65 463.4,-246.65 212.06,0 368.09,107.22 468.24,321.67 92.93,202.53 193,615.97 300.22,1242.55 101.23,607.6 253.72,1261.62 456.25,1962.22 265.64,-691.07 513.52,-1448.78 741.03,-2274.35l196.54 -802.9c126.28,-332.43 320.52,-499.22 583.77,-499.22 254.95,0 443.19,193 567.09,580.16 51.27,154.88 106.07,446.8 164.41,872.08 135.82,992.44 304.99,1841.85 511.06,2549.44 207.3,719.66 310.98,1111.58 310.98,1173.53 0,138.2 -54.8,252.57 -163.18,345.42 -102.53,84.63 -216.83,126.36 -345.5,126.36 -252.57,0 -440.88,-182.32 -563.55,-545.64l-197.77 -845.87c-113.14,-419.36 -234.74,-1020.96 -366.94,-1806.11 -104.84,310.98 -278.78,801.83 -521.82,1468.99l-209.6 643.34c-85.78,253.65 -176.4,462.17 -269.33,624.2 -123.83,216.83 -296.61,325.28 -518.2,325.28 -219.13,0 -387.15,-128.74 -503.91,-387.23l-194.15 -649.26c-181.16,-596.84 -344.34,-1222.34 -487.31,-1878.74zm5912.63 813.66c-39.35,0 -137.05,-8.3 -293.08,-23.83 -9.53,325.2 -14.3,860.16 -14.3,1603.58 0,123.9 -42.89,229.89 -129.9,318.13 -85.7,88.16 -196.54,132.2 -328.82,132.2 -133.36,0 -244.11,-44.04 -332.35,-132.2 -86.93,-89.39 -131.05,-195.46 -131.05,-318.13l0 -974.46c0,-359.87 22.67,-894.75 67.87,-1602.42 42.89,-718.35 65.64,-1255.7 67.95,-1609.49 2.38,-605.21 171.56,-894.68 508.67,-868.54 79.86,-21.44 188.31,-36.89 327.66,-47.58 140.58,-10.76 309.75,-15.53 509.9,-15.53 455.1,0 882.76,147.73 1283.14,443.19 444.26,331.2 665.93,733.88 665.93,1209.27 0,595.61 -235.89,1069.77 -707.67,1421.26 -418.13,309.75 -916.2,464.56 -1493.97,464.56zm171.56 -2637.68c-75.09,0 -140.58,0 -197.77,1.31 -57.19,1.15 -105.99,4.69 -145.35,9.45 0,109.68 -1.15,274.01 -3.54,493.3 -3.61,259.64 -23.9,663.55 -60.8,1211.58 117.98,19.06 197.84,28.52 237.04,28.52 362.17,0 663.63,-86.93 901.9,-259.72 256.18,-183.39 383.54,-427.66 383.54,-731.42 0,-199 -120.29,-375.24 -359.72,-529.04 -231.12,-148.88 -482.46,-223.98 -755.32,-223.98z"/>
   <path fill="#373435" fill-rule="nonzero" d="M26018.93 3936.19l-3.54 1471.37c0,102.38 -28.67,196.54 -87.01,282.31 -81.01,119.06 -200.15,178.7 -356.26,178.7 -183.47,0 -327.59,-75.09 -432.43,-223.98 -81.01,-115.6 -121.6,-240.73 -121.6,-372.94 0,-516.98 15.6,-1293.74 46.58,-2330.23 30.98,-1036.49 46.42,-1813.18 46.42,-2330.31 0,-131.05 46.5,-242.96 139.35,-335.89 93,-93 209.76,-139.43 349.11,-139.43 138.2,0 253.8,46.42 345.5,139.43 91.77,92.93 138.2,204.84 138.2,335.89 0,209.68 -9.53,491.99 -29.82,848.33 -23.83,414.52 -36.89,698.06 -41.74,849.33 163.33,-153.65 766.09,-800.52 1808.57,-1940.62 107.22,-116.75 231.05,-175.17 370.48,-175.17 132.28,0 247.73,46.5 346.73,139.35 98.84,93 147.65,206.07 147.65,339.58 0,144.12 -276.32,518.2 -830.34,1123.42 -409.75,445.57 -841.1,883.99 -1294.97,1316.42 253.72,240.73 508.67,480.16 763.63,719.58 297.84,275.17 565.86,500.37 802.98,676.69 119.06,87.01 246.57,152.49 384.77,196.54 248.96,78.63 374.09,231.2 374.09,457.56 0,100 -30.98,196.54 -94.16,289.46 -85.78,125.13 -206.07,188.24 -359.72,188.24 -332.35,0 -762.47,-218.06 -1292.59,-652.94 -158.49,-129.82 -531.35,-480 -1119.88,-1050.71z"/>
   <path fill="#373435" fill-rule="nonzero" d="M34239.19 618.28c-45.27,170.4 -67.95,318.13 -67.95,444.42 0,65.56 -5.92,166.79 -18.98,303.76 -11.91,135.89 -17.91,237.12 -17.91,302.61 0,221.59 -11.91,551.64 -34.51,988.83 -22.67,435.96 -33.36,766.01 -33.36,987.6 0,170.4 11.91,425.36 35.66,763.63 23.83,339.58 35.74,593.38 35.74,764.86 0,127.51 -45.27,237.12 -135.74,325.2 -90.62,89.47 -203.76,133.51 -338.42,133.51 -136.97,0 -254.95,-44.04 -354.95,-131.05 -100.15,-86.93 -150.11,-193 -150.11,-319.29 0,-169.17 -7.23,-424.13 -21.44,-763.7 -14.37,-339.42 -21.44,-594.45 -21.44,-763.63 0,-133.36 2.38,-250.11 7.07,-352.64 -364.56,16.76 -814.89,72.71 -1350.93,169.17 -445.65,81.01 -891.14,162.03 -1336.71,245.42 -4.77,147.81 -20.29,394.38 -46.42,741.03 -21.44,304.99 -32.21,554.02 -32.21,747.02 0,120.29 -45.19,220.29 -135.82,303.76 -91.77,82.17 -204.91,123.9 -339.58,123.9 -134.51,0 -247.73,-42.89 -339.42,-129.82 -90.62,-85.78 -135.89,-191.85 -135.89,-316.98 0,-228.67 19.14,-571.78 58.42,-1028.11 39.28,-456.33 58.42,-799.37 58.42,-1028.11 0,-290.69 7.07,-729.11 20.21,-1312.88 13.07,-585 20.29,-1023.34 20.29,-1312.88 0,-125.05 45.19,-231.05 135.74,-316.83 91.77,-86.93 204.91,-129.82 339.58,-129.82 134.66,0 247.73,44.04 339.5,132.2 90.54,88.08 135.82,196.54 135.82,325.2 0,176.32 -5.92,442.03 -19.06,795.83 -13.14,355.03 -20.21,620.66 -20.21,796.98 0,58.42 -8.38,170.33 -25.06,334.81 -11.91,153.65 -16.68,271.63 -14.3,352.64l1336.71 -249.03c522.97,-91.7 972.15,-144.12 1350.93,-158.49 9.53,-157.18 23.9,-581.31 45.35,-1271.07 4.69,-181.09 58.34,-389.61 162.03,-625.5 129.82,-289.46 277.55,-433.58 441.96,-433.58 122.75,0 232.28,40.43 326.43,122.67 102.46,88.08 153.65,200.15 153.65,332.35 0,35.74 -4.69,70.33 -13.07,105.99z"/>
   <path fill="#373435" stroke="black" stroke-width="58.57" stroke-miterlimit="2.61313" d="M23137.83 4768.99c-50.5,-132.36 -6.23,-84.39 15.22,-338.27 10.68,-127.05 30.28,-244.04 2,-354.87l385.31 -239.66c34.74,207.53 -203.38,698.6 -402.53,932.8zm36.36 -940.64c-152.19,-485.15 -128.59,-384.39 352.41,-805.67 82.24,211.52 25.36,195.77 44.66,351.95 31.44,254.57 -22.14,200.53 -397.07,453.72zm-2817.31 972.46c224.21,-50.34 278.55,-38.51 470.7,-56.8l380.08 -69.18c40.58,-2.77 41.04,-1.92 74.1,-0.46 -4.07,110.6 -121.83,366.86 -176.01,470.86l-174.86 -41.58c-255.87,-63.41 -354.64,-112.6 -574.01,-302.84zm2224.08 -2436.3l-155.88 -206.14 274.63 -377.62 176.55 144.27c-53.88,142.43 -168.41,304.84 -295.3,439.5zm-1884.12 962.39c-25.83,-110.07 -3.15,-201.46 67.02,-326.89l227.82 267.17c-224.21,95.23 -205.38,87.93 -294.84,59.72zm-1293.36 925.27l52.65 4.77c76.94,18.75 -14.14,-9.68 73.4,22.37 203.99,74.86 114.76,41.51 352.11,74.71 278.47,39.05 957.47,31.13 1198.2,-61.41 150.73,-57.95 91.39,-67.79 241.81,-47.35l22.9 148.5c-111.6,106.76 -113.14,88.55 -246.27,95.92 -104.92,5.76 -165.41,22.6 -267.02,40.51 -228.74,40.51 -799.06,43.89 -1018.65,5.92 -312.6,-54.03 -275.24,5.07 -409.14,-283.93zm-83.01 -577.39l703.6 274.63c92.16,11.84 158.87,19.06 242.19,33.74 342.96,60.49 663.4,0.69 981.84,-152.57l79.4 171.17 -577 139.04c-504.06,17.06 -606.44,107.68 -1150.24,-68.1 -350.65,-113.37 -266.17,-64.56 -279.78,-397.92zm2413.55 -2278.27c98.23,38.28 468.17,74.63 783.53,255.8 -48.42,108.84 -129.59,235.51 -228.43,341.81l-555.1 -597.6zm-2414.47 1840.7c55.8,14.6 341.35,172.25 426.43,212.52 175.94,83.16 510.29,156.49 683.92,129.28 263.56,-41.2 -33.2,67.72 466.71,-65.49 106.22,-28.29 155.42,-56.72 253.26,-36.51l32.59 165.41c-350.88,160.57 -663.24,181.47 -1022.57,124.29l-506.52 -163.79c-166.41,-61.64 -392.15,-166.41 -333.81,-365.71zm343.96 -44.58c-94,-107.84 -5,-253.18 113.22,-418.67l219.52 -329.74c113.68,-100.77 8.38,-53.96 108.07,-23.29 -2.46,7.99 -12.3,13.68 -8.84,23.52 3.54,10.07 -6.99,18.06 -10.61,23.44 -5.76,8.69 -159.34,170.33 -227.59,353.34 -118.6,318.06 -74.33,343.96 -193.77,371.4zm952.09 -1597.89c189.77,-122.67 156.26,-110.22 537.11,177.94 615.44,465.63 1251.62,1160.23 1392.59,1915.41 13.3,71.33 20.29,75.17 34.97,133.82 17.52,70.18 17.99,83.86 27.06,155.95 24.06,191.39 19.37,386.46 -6.53,575.62 -58.18,424.28 -55.19,297.76 -145.73,573.55 -80.86,246.19 -54.57,385.16 -380.62,422.97 5.38,-137.51 22.6,-98.69 82.09,-231.05 40.05,-89.08 43.04,-163.64 69.94,-262.56 84.55,-310.91 149.5,-726.81 120.67,-1039.41 -8.69,-94.39 -13.37,-57.8 -28.21,-133.28 -27.75,-141.2 -4.3,-212.22 -78.71,-400.45 -190.62,-482.77 -211.45,-591.92 -616.36,-1046.94 -415.13,-466.48 -606.52,-546.34 -1008.28,-841.56zm-351.57 189.77c135.12,-93.23 125.52,-74.94 270.86,6.23 111.45,62.26 159.1,92.54 259.79,182.62 554.87,496.38 1109.74,838.18 1308.27,1796.35 115.6,558.02 -48.81,1393.13 -302.61,1872.9l-183.24 18.98c2.54,-62.95 191.16,-517.05 231.89,-877.77 5.76,-51.11 14.6,-84.63 21.52,-133.05 139.66,-978.3 -281.62,-1905.8 -1099.44,-2509.78 -179.24,-132.43 -359.41,-209.3 -507.06,-356.49zm-845.41 1256.08c-76.09,-132.36 1.08,-188.54 128.21,-425.74 62.57,-116.6 135.05,-361.71 283.78,-364.71 48.04,124.75 -123.98,204.3 -231.74,388.15 -87.93,150.11 -96.23,265.33 -180.24,402.3zm1550.16 -161.03c-129.05,44.58 5.69,12.45 -127.98,4.15 -56.65,-3.54 15.6,-55.88 -108.45,21.06 -90.54,56.11 -145.81,148.88 -214.68,226.13 -81.09,128.74 20.06,81.94 -67.72,272.09 -65.87,-35.59 -59.18,-32.13 -133.36,-57.49 24.75,-222.52 85.47,-291.54 57.49,-362.25 -39.51,-106.07 23.6,-54.42 -161.03,-72.4 -84.78,154.19 -79.94,332.89 -135.28,441.57 -227.05,-107.91 -157.95,-91.24 -76.71,-352.49 36.36,-116.91 189.08,-327.82 303.61,-448.95 63.72,122.29 66.79,-3.92 -1.54,146.12 -42.97,94.23 -48.12,42.12 -68.64,146.96l76.4 45.35c71.56,-64.87 124.98,-102.23 170.48,-158.34 109.3,-134.82 39.81,-122.06 54.96,-259.41l-611.52 -411.75 109.07 -108.07 118.29 35.82c767.01,340.81 1572.99,1341.48 1530.94,2173.13l-127.05 1016.2c-30.28,102.92 -144.96,439.81 -199.38,514.75 -56.8,-7.76 -58.34,-7.38 -125.21,-23.6l-126.67 -29.67c-6.99,-1.46 -18.75,-3.69 -28.13,-5.15 621.12,-920.19 647.18,-1949.69 -107.91,-2753.74zm-1014.97 2508.86c67.64,-7.76 77.55,-4.61 129.9,-11.53 12.91,-1.69 56.34,-9.07 68.25,-11.84 64.87,-14.83 0,2.46 73.94,-21.83l-605.29 -604.14c47.81,-6.84 26.06,-5.15 75.79,-1.84 14.99,1 60.95,6.61 89.62,8.92 301.91,24.37 207.6,77.32 527.58,330.58 113.83,90.08 217.44,129.36 348.11,169.87 143.35,44.43 197.84,64.56 345.03,124.21l-167.94 219.06c-13.84,-6.07 -30.82,-14.6 -28.9,-9.92l-415.36 -138.58c-82.7,28.44 -54.19,69.33 -43.27,168.17 239.81,227.59 977.15,320.98 1294.82,249.65 165.18,-37.12 201.15,11.84 444.49,-84.86 168.33,-66.87 467.09,-133.05 591.61,-289.62 109.84,-59.95 36.05,-9.53 122.6,-83.09 -63.03,-13.84 -126.05,-60.57 -198.46,-91.62 -8.76,-46.04 -9.22,-20.52 9.99,-71.79 107.3,-94.16 189.31,-541.96 204.45,-703.37 8.61,-91.54 -0.38,-41.66 -1.15,-110.14 -0.69,-63.57 3.54,-69.71 8.53,-133.43 9.22,-117.29 -10.53,-351.18 -32.05,-486.92 -23.06,-146.12 -80.63,-323.51 -138.2,-491.23 -261.64,-762.24 -969.77,-1386.9 -1582.29,-1853.38 231.43,-92 198.07,-104.61 415.06,68.1 765.32,609.36 648.87,707.06 1098.67,1225.64 78.55,-28.29 151.96,-46.35 209.14,-60.11l-84.7 -170.17c133.43,-143.66 238.43,-295.46 318.21,-442.96l198.38 262.95 -114.6 143.04c12.91,56.42 22.67,14.37 22.44,110.14 -0.23,100.61 16.83,13.76 -32.28,94.08 124.52,-70.64 16.83,-19.14 105.99,-1.77l139.04 -165.79c186.01,297.61 90.08,326.2 -343.8,670.39 -31.67,-74.33 -51.27,-156.34 -109.99,-226.13 12.22,-49.35 -12.76,-46.12 96.31,-134.66 -44.43,-33.67 -283.62,-32.44 -343.73,-19.52 25.98,229.74 483.46,805.82 245.11,1900.8 -11.91,54.65 -35.66,226.28 -34.36,265.25 8.3,201.53 17.6,158.11 -103.15,262.56 74.1,-55.03 -27.82,-25.36 70.87,-54.96 95.69,-28.75 129.74,29.75 159.64,59.41l52.65 -69.71c476.16,-325.2 779.77,-1240.79 743.1,-1554.69 -17.29,-148.34 33.28,-200.53 6.15,-331.35 -99.08,-478.24 22.21,-71.1 -165.87,-645.41 -312.29,-953.48 -1302.89,-1499.97 -2259.29,-1455.23 -469.47,21.98 -877.69,183.93 -1269.92,457.87 -230.51,161.03 -430.04,370.55 -573.47,589.46 -290.23,443.11 -498.99,1044.4 -416.59,1589.36 58.34,385.85 109.22,602.14 327.59,979.92 104.07,180.09 342.42,486.92 521.59,582.15z"/>
   <path fill="#373435" stroke="black" stroke-width="58.57" stroke-miterlimit="2.61313" d="M22760.21 6183.03c-49.11,226.13 182.39,322.59 333.74,346.19 426.82,-381.01 378.32,-407.14 572.85,-849.02 88.55,-201.15 327.28,-689.92 483.69,-856.55 23.83,199.69 -88.39,401.84 -149.19,684.84 -62.1,289.46 -174.48,420.21 169.4,635.04 -133.74,-540.11 -89.62,-295.07 51.19,-852.79 22.44,-88.85 14.14,-109.3 46.27,-198.3 51.57,-142.66 44.81,-54.11 61.64,-220.21 29.28,-290.23 73.02,-297 -93.93,-410.06 -352.34,165.18 -443.26,521.59 -598.6,817.97 -101.84,194.23 -139.43,265.64 -204.15,462.56 -42.2,128.44 -154.11,350.41 -303.99,425.28 -203.84,-78.25 -100,-202.99 -111.07,-388.69 -23.44,-392.77 59.34,-209.76 15.22,-435.42 -92.77,-29.75 -213.37,89.08 -199.76,232.74l6.46 156.57c-57.19,423.9 36.97,313.29 -79.78,449.87z"/>
   <path fill="#373435" stroke="black" stroke-width="58.57" stroke-miterlimit="2.61313" d="M22616.32 5238.24c-19.22,51.27 -18.75,25.75 -9.99,71.79 72.4,31.05 135.43,77.78 198.46,91.62 -86.55,73.56 -12.76,23.14 -122.6,83.09 29.98,3.61 44.66,22.6 72.17,19.75l-74.86 489.38c7.69,77.86 24.67,113.6 80.71,189.16 116.75,-136.58 22.6,-25.98 79.78,-449.87l-6.46 -156.57c-13.6,-143.66 106.99,-262.48 199.76,-232.74 33.28,-98.77 37.51,-55.8 7.23,-167.48l-52.65 69.71c-29.9,-29.67 -63.95,-88.16 -159.64,-59.41 -98.69,29.59 3.23,-0.08 -70.87,54.96 120.75,-104.46 111.45,-61.03 103.15,-262.56 -25.6,42.2 -94.16,172.86 -100.23,180.32 -29.59,36.51 -18.22,27.52 -61.03,54.34 -69.87,43.66 -22.9,21.06 -82.93,24.52z"/>
   <path fill="#373435" stroke="black" stroke-width="58.57" stroke-miterlimit="2.61313" d="M20234.51 2844.06l-21.44 66.79c184.62,17.99 121.52,-33.67 161.03,72.4 51.73,-91.47 74.48,-165.71 161.26,-195.69 121.98,170.17 -56.95,84.47 -17.68,343.34 68.87,-77.25 124.13,-170.02 214.68,-226.13 124.06,-76.94 51.81,-24.6 108.45,-21.06 133.66,8.3 -1.08,40.43 127.98,-4.15l-80.32 -84.55 -133.74 57.88c-61.41,-39.66 -127.44,-62.8 -180.63,-113.76l62.72 -186.47 -100.46 -81.01c-15.14,137.35 54.34,124.59 -54.96,259.41 -45.5,56.11 -98.92,93.46 -170.48,158.34l-76.4 -45.35z"/>
   <path fill="#373435" stroke="black" stroke-width="58.57" stroke-miterlimit="2.61313" d="M22649.75 2813c60.11,-12.91 299.3,-14.14 343.73,19.52 -109.07,88.55 -84.09,85.32 -96.31,134.66l314.75 -278.47c-89.16,-17.37 18.52,-68.87 -105.99,1.77 49.11,-80.32 32.05,6.53 32.28,-94.08 0.23,-95.77 -9.53,-53.73 -22.44,-110.14l-247.04 240.42c-60.49,0.38 4.69,81.86 -70.25,-33.28 -57.19,13.76 -130.59,31.82 -209.14,60.11l60.41 59.49z"/>
   <path fill="#373435" stroke="black" stroke-width="58.57" stroke-miterlimit="2.61313" d="M20351.27 5609.56c-10.91,-98.84 -39.43,-139.74 43.27,-168.17l-168.64 -98.15c-73.94,24.29 -9.07,6.99 -73.94,21.83 -11.91,2.77 -55.34,10.15 -68.25,11.84 -52.34,6.92 -62.26,3.77 -129.9,11.53 85.09,67.1 209.07,172.79 326.28,209.99 53.57,16.99 29.9,8.38 71.17,11.15z"/>
   <path fill="#373435" stroke="black" stroke-width="58.57" stroke-miterlimit="2.61313" d="M20888.46 2795.02l-251.65 -242.35 -62.72 186.47c53.19,50.96 119.21,74.1 180.63,113.76l133.74 -57.88z"/>
  </g>
 </g>
</svg>
