<?xml version="1.0" encoding="UTF-8"?>
<!DOCTYPE svg PUBLIC "-//W3C//DTD SVG 1.1//EN" "http://www.w3.org/Graphics/SVG/1.1/DTD/svg11.dtd">
<!-- Creator: CorelDRAW 2021 (64-Bit) -->
<svg xmlns="http://www.w3.org/2000/svg" xml:space="preserve" width="0.674728in" height="0.34965in" version="1.1" shape-rendering="geometricPrecision" text-rendering="geometricPrecision" image-rendering="optimizeQuality" fill-rule="evenodd" clip-rule="evenodd"
viewBox="0 0 327.34 169.63"
 xmlns:xlink="http://www.w3.org/1999/xlink"
 xmlns:xodm="http://www.corel.com/coreldraw/odm/2003">
 <g id="Layer_x0020_1">
  <metadata id="CorelCorpID_0Corel-Layer"/>
  <path fill="#373435" fill-rule="nonzero" d="M76.71 119.47l-16.21 0c-5.26,0 -9.23,-2.04 -11.92,-6.15 -2.27,-3.45 -3.45,-7.95 -3.49,-13.48 -7.58,2.94 -14.19,6.8 -19.87,11.55 -7.35,6.18 -11.02,12.52 -11.02,19.02 0,9.37 3.15,15.82 9.41,19.43 4.75,2.71 12.31,4.09 22.69,4.09 3.4,0 9.92,-0.85 19.57,-2.55 0.5,-0.09 1.08,-0.14 1.75,-0.14 1.93,0 3.56,0.62 4.89,1.84 1.31,1.24 1.97,2.82 1.97,4.73 0,3.63 -2.07,6.13 -6.18,7.53 -8.57,2.87 -16.65,4.3 -24.23,4.3 -29.37,0 -44.07,-12.04 -44.07,-36.13 0,-9.28 3.79,-17.87 11.37,-25.79 6.11,-6.36 13.5,-11.35 22.21,-14.97 -7.35,-0.64 -11.85,-0.96 -13.46,-0.96 -2.21,0 -4.71,0.96 -7.53,2.87 -2.82,1.93 -4.43,2.89 -4.85,2.89 -4.14,0 -6.2,-1.93 -6.2,-5.76 0,-3.01 1.56,-6.22 4.66,-9.67 3.49,-3.93 7.49,-5.9 11.97,-5.9 3.58,0 8.96,0.51 16.08,1.49 7.14,0.99 12.49,1.47 16.08,1.47 2.57,0 5.19,-0.02 7.88,-0.07 2.62,-0.14 4.82,0.41 6.66,1.68 2.07,1.38 3.1,3.33 3.1,5.83 0,4.92 -3.05,8.02 -9.14,9.32 -1.49,0.3 -3.24,0.8 -5.26,1.47 0.76,4.25 3.81,6.36 9.14,6.36l14.01 0 0 15.71zm-35.09 -64.77c0,2.14 -0.76,3.97 -2.25,5.47 -1.52,1.49 -3.35,2.25 -5.49,2.25 -2.11,0 -3.93,-0.76 -5.44,-2.27 -1.49,-1.54 -2.25,-3.33 -2.25,-5.44 0,-2.16 0.74,-3.97 2.23,-5.47 1.47,-1.49 3.31,-2.25 5.47,-2.25 2.14,0 3.97,0.76 5.49,2.25 1.49,1.49 2.25,3.31 2.25,5.47zm71.93 64.77l-40.79 0 0 -15.71 40.79 0 0 15.71zm34.11 -111.87c0,4.75 -2.27,8.87 -6.82,12.31 1.61,1.13 2.41,2.32 2.41,3.56 0,1.54 -0.9,2.3 -2.69,2.3 -1.4,0 -2.9,-0.62 -4.5,-1.84 -9.88,5.17 -16.79,7.76 -20.74,7.76 -2.32,0 -3.49,-0.96 -3.49,-2.89 0,-1.52 0.92,-2.53 2.76,-3.03 6.64,-1.74 12.04,-3.93 16.15,-6.52 -2.04,-2.07 -3.05,-4.36 -3.05,-6.94 0,-3.15 1.17,-5.97 3.49,-8.5 2.32,-2.55 5.05,-3.81 8.15,-3.81 2.23,0 4.16,0.74 5.83,2.18 1.68,1.47 2.5,3.26 2.5,5.42zm-6.06 2.32c0,-2.57 -1.22,-3.86 -3.67,-3.86 -1.2,0 -2.3,0.6 -3.26,1.79 -0.99,1.19 -1.47,2.39 -1.47,3.6 0,2.02 1.06,3.61 3.15,4.73 1.19,-0.37 2.37,-1.19 3.51,-2.5 1.17,-1.31 1.75,-2.57 1.75,-3.77zm-2.62 85.14c0,7.56 -2.11,13.51 -6.32,17.87 -4.23,4.36 -10.08,6.55 -17.57,6.55l-5.33 0 0 -15.71 6.2 0c6.71,0 10.06,-2.34 10.06,-7 0,-1.35 -0.32,-3.31 -0.96,-5.88 -0.64,-2.55 -0.96,-4.52 -0.96,-5.86 0,-1.86 0.6,-3.45 1.77,-4.75 1.19,-1.33 2.71,-2 4.52,-2 5.72,0 8.59,5.6 8.59,16.79zm8.13 41.36c0,2.14 -0.73,3.97 -2.23,5.47 -1.47,1.49 -3.31,2.25 -5.44,2.25 -2.16,0 -4,-0.76 -5.51,-2.25 -1.49,-1.49 -2.25,-3.33 -2.25,-5.47 0,-2.16 0.76,-3.97 2.25,-5.47 1.51,-1.49 3.35,-2.25 5.51,-2.25 2.14,0 3.97,0.76 5.44,2.25 1.49,1.49 2.23,3.31 2.23,5.47zm-18.88 0c0,2.14 -0.74,3.97 -2.23,5.47 -1.47,1.49 -3.31,2.25 -5.44,2.25 -2.16,0 -4,-0.76 -5.51,-2.25 -1.49,-1.49 -2.25,-3.33 -2.25,-5.47 0,-2.16 0.76,-3.97 2.25,-5.47 1.51,-1.49 3.35,-2.25 5.51,-2.25 2.14,0 3.97,0.76 5.44,2.25 1.49,1.49 2.23,3.31 2.23,5.47zm9.51 16.33c0,2.16 -0.76,3.97 -2.25,5.51 -1.51,1.51 -3.35,2.27 -5.49,2.27 -2.16,0 -4,-0.76 -5.46,-2.27 -1.49,-1.54 -2.23,-3.35 -2.23,-5.51 0,-2.09 0.76,-3.9 2.25,-5.4 1.51,-1.49 3.33,-2.25 5.44,-2.25 2.14,0 3.97,0.74 5.49,2.2 1.49,1.49 2.25,3.31 2.25,5.44zm118.62 -33.28l-4.36 0c-6.41,0 -11.14,-1.54 -14.19,-4.64 -2.55,5.86 -6.94,8.77 -13.16,8.77 -6.25,0 -12.01,-3.24 -17.36,-9.71 -4.02,0 -6.04,2.87 -6.04,8.61l0 41.34c0,3.49 -1.84,5.24 -5.51,5.24 -3.49,0 -5.33,-1.75 -5.51,-5.24l-2.07 -43.2c-0.53,-11.67 4.52,-19.06 15.2,-22.25 1.22,-0.35 2.8,-1.75 4.78,-4.16 2.41,-3.01 4.32,-5.05 5.72,-6.11 2.64,-2.07 5.6,-3.1 8.89,-3.1 5.76,0 11.67,4.78 17.68,14.31 1.84,2.96 6.41,4.43 13.71,4.43l2.23 0 0 15.71zm-27.95 -10.93c0.44,-0.8 0.66,-1.65 0.66,-2.59 0,-1.91 -0.62,-3.65 -1.88,-5.24 -1.4,-1.63 -3.03,-2.46 -4.91,-2.46 -1.54,0 -2.99,0.62 -4.39,1.88 -1.4,1.26 -2.09,2.62 -2.09,4.09 0,1.59 1.06,3.12 3.17,4.59 1.97,1.4 3.79,2.11 5.47,2.11 1.74,0 3.08,-0.8 3.97,-2.39zm64.93 10.93l-40.79 0 0 -15.71 40.79 0 0 15.71zm31.23 -96.48l-25.84 8.09c-0.28,0.14 -0.6,0.21 -1.01,0.21 -1.95,0 -2.94,-1.06 -2.94,-3.17 0,-1.61 0.92,-2.71 2.76,-3.31l24.96 -7.95c0.41,-0.11 0.87,-0.18 1.42,-0.18 2.27,0 3.42,1.06 3.42,3.19 0,1.52 -0.92,2.55 -2.78,3.12zm-5.81 72.07c0,7.56 -2.11,13.51 -6.32,17.87 -4.23,4.36 -10.08,6.55 -17.57,6.55l-5.33 0 0 -15.71 6.2 0c6.71,0 10.06,-2.34 10.06,-7 0,-1.35 -0.32,-3.31 -0.96,-5.88 -0.64,-2.55 -0.96,-4.52 -0.96,-5.86 0,-1.86 0.6,-3.45 1.77,-4.75 1.19,-1.33 2.71,-2 4.52,-2 5.72,0 8.59,5.6 8.59,16.79zm8.13 41.36c0,2.14 -0.73,3.97 -2.23,5.47 -1.47,1.49 -3.31,2.25 -5.44,2.25 -2.16,0 -4,-0.76 -5.51,-2.25 -1.49,-1.49 -2.25,-3.33 -2.25,-5.47 0,-2.16 0.76,-3.97 2.25,-5.47 1.51,-1.49 3.35,-2.25 5.51,-2.25 2.14,0 3.97,0.76 5.44,2.25 1.49,1.49 2.23,3.31 2.23,5.47zm-18.88 0c0,2.14 -0.74,3.97 -2.23,5.47 -1.47,1.49 -3.31,2.25 -5.44,2.25 -2.16,0 -4,-0.76 -5.51,-2.25 -1.49,-1.49 -2.25,-3.33 -2.25,-5.47 0,-2.16 0.76,-3.97 2.25,-5.47 1.51,-1.49 3.35,-2.25 5.51,-2.25 2.14,0 3.97,0.76 5.44,2.25 1.49,1.49 2.23,3.31 2.23,5.47zm9.51 16.33c0,2.16 -0.76,3.97 -2.25,5.51 -1.51,1.51 -3.35,2.27 -5.49,2.27 -2.16,0 -4,-0.76 -5.46,-2.27 -1.49,-1.54 -2.23,-3.35 -2.23,-5.51 0,-2.09 0.76,-3.9 2.25,-5.4 1.51,-1.49 3.33,-2.25 5.44,-2.25 2.14,0 3.97,0.74 5.49,2.2 1.49,1.49 2.25,3.31 2.25,5.44z"/>
 </g>
</svg>
