<?xml version="1.0" encoding="UTF-8"?>
<!DOCTYPE svg PUBLIC "-//W3C//DTD SVG 1.1//EN" "http://www.w3.org/Graphics/SVG/1.1/DTD/svg11.dtd">
<!-- Creator: CorelDRAW 2021 (64-Bit) -->
<svg xmlns="http://www.w3.org/2000/svg" xml:space="preserve" width="0.444205in" height="0.629098in" version="1.1" shape-rendering="geometricPrecision" text-rendering="geometricPrecision" image-rendering="optimizeQuality" fill-rule="evenodd" clip-rule="evenodd"
viewBox="0 0 154.78 219.2"
 xmlns:xlink="http://www.w3.org/1999/xlink"
 xmlns:xodm="http://www.corel.com/coreldraw/odm/2003">
 <g id="Layer_x0020_1">
  <metadata id="CorelCorpID_0Corel-Layer"/>
  <g id="_1551366612848">
   <path fill="white" stroke="#EC268F" stroke-width="1.05" stroke-miterlimit="2.61313" d="M42.31 143.92l-0.38 8.32c-0.02,0.19 -0.04,0.38 -0.09,0.57 -0.12,0.45 -0.01,0.19 -0.2,0.45l0.13 0.11c-0.01,1.16 0.13,4.91 -0.34,5.61 0.31,1.7 -0.03,4.87 -0.08,6.75 -0.05,2.36 -0.11,4.71 -0.14,7.07 -0.06,4.7 0.06,9.29 0.11,13.97l55.79 0.03 -0.04 -19.19c-0.29,-2.27 -0.02,-32.9 0.03,-35.53 0.39,-20.48 -0.92,-47.01 -4.75,-67.05 -0.84,-4.39 -3.47,-17.97 -5.37,-21.65 -1.3,-2.53 -2.73,-2.68 -5.84,-1.99 1.11,16.88 2.96,33.6 3.73,50.63 0.53,11.8 -0.09,27.34 -0.81,39.45 -0.23,3.88 -0.31,8.79 -0.93,12.54 0.15,-27.87 0.47,-49.43 -1.39,-77.56 -0.53,-8.11 -1.49,-16.27 -2.01,-24.35 -1.11,-0.33 -3.12,-2.84 -6.89,-0.19 -0.28,2.13 -0.04,5.97 -0.05,8.31l-1.04 53.65c-0.04,1.67 -0.22,1.38 -0.55,1.52 -0.49,-1.25 0.2,-14.73 0.27,-17.41 0.16,-5.95 0.2,-11.86 0.15,-17.82 -0.08,-8.07 -0.12,-18.36 -0.53,-26.4 -0.14,-2.68 -2.86,-3.61 -5.2,-2.2 -0.27,16.5 -0.54,33.01 -1.42,49.48 -0.84,15.84 -2.01,31.71 -2.96,47.4l1.11 -45.2c0.02,-1.03 0.07,-2.1 0.11,-3.13l1.75 -48.06c-2.25,-0.44 -3.92,-1.66 -6.7,-0.9 -2.02,0.55 -3.36,1.94 -3.73,4.18 -0.75,4.57 -1.49,9.05 -2.22,13.56 -1.48,9.12 -2.71,18.37 -3.96,27.61 -1.33,9.77 -5.51,47.1 -5.59,57.42z"/>
   <path fill="#EC268F" stroke="#EC268F" stroke-width="1.05" stroke-miterlimit="2.61313" d="M114.07 61.29c1.23,-0.55 8.32,-3.03 9.49,-3.19 -1.18,1.04 -7.43,3.62 -9.49,3.19zm-24.47 -15.54l4.85 -1.36c0.29,9.55 2.06,28.8 1.74,36.66l-0.3 -1.06c-0.94,-5.84 -1.39,-10.91 -2.64,-17.3 -0.77,-3.94 -1.8,-9.07 -2.86,-12.93 -0.78,-2.84 -0.84,-1.92 -0.79,-4.02zm-37.97 6.29c-3.63,-2.24 -6.49,-4.7 -9.63,-6.96l9.98 5.15 -0.35 1.81zm38.16 -11.03c0.36,-0.35 0.63,-0.59 1.24,-0.7 0.72,-0.13 1.14,-0.03 1.63,0.35 -0.72,0.32 -2,0.44 -2.87,0.35zm6.61 -1.84c-0.03,0.04 -0.08,0.1 -0.11,0.12l-1.42 1.19 -1 -0.86 2.53 -0.45zm17.36 20.67l-0.11 -0.86c7.86,-0.81 14.3,-4.78 18.65,-10.45 1.01,-1.31 2.78,-4.52 3.27,-6.4 -2.81,3.99 -5.38,6.96 -8.82,9.79 -2.93,2.41 -8.09,5.67 -13.5,5.09l-0.65 -3.83c4.68,-0.46 8.3,-2.04 11.63,-4.19 2.36,-1.53 6.83,-4.88 8.71,-7.08 1.26,-1.47 2.54,-2.53 3.77,-4.13 0.62,-0.81 1.11,-1.22 1.8,-2.14 2.34,-3.12 4.44,-5.67 6.61,-9.19 0.61,-0.99 0.77,-1.44 1.53,-2.37 4.51,0.54 8.68,8.02 4.99,12.22 -0.75,0.85 -1.54,1.83 -2.33,2.66 -5.24,5.54 -13.44,12.99 -20.37,15.79 -1.74,0.7 -14.31,5.24 -15.19,5.09zm28.06 -30.97c0.29,-0.92 1.04,-1.97 1.49,-2.98 1.32,-2.91 1.03,-2.28 1.89,-2.16 -0.33,1.04 -1.03,1.73 -1.59,2.65l-1.79 2.48zm-31.46 12.2c1.18,-0.89 4.21,-2.07 5.74,-2.92 5.99,-3.33 10.27,-6.26 15.1,-10.87 3.9,-3.73 4.84,-5.24 7.9,-9.56 3.9,-5.53 4.42,-9.77 5.49,-11.77 2.73,0.52 3.83,3.79 3.21,7.2 -0.77,4.23 -4.59,10.08 -6.78,14.4 -4.67,9.22 -15.92,22.48 -28.69,24.18l-0.6 -3.38c0.71,-0.88 2.66,-2.2 3.77,-3.11 3.24,-2.64 6.19,-4.92 9.33,-7.72l3.66 -3.2c0.71,-0.54 0.97,-1.09 1.64,-1.68 2.06,-1.82 4.96,-4.6 6.74,-6.76 1.24,-1.5 1.74,-1.79 2.96,-3.7 -0.94,0.61 -2.43,2.2 -3.34,3.11 -2.61,2.59 -7.34,6.64 -10.3,9.03 -2.09,1.68 -12.44,9.5 -15.15,10.54l-0.67 -3.78zm-56.48 1.33c-0.05,0.01 -0.11,0.01 -0.14,0l-3.11 -1.72c-0.55,-0.36 -0.99,-0.69 -1.47,-1.03 -0.59,-0.42 -0.87,-0.53 -1.51,-0.98 -1.94,-1.37 -4,-2.97 -5.83,-4.36l-8.3 -7.07c-0.47,-0.43 -0.73,-0.84 -1.21,-1.27 -4.94,-4.55 -6.81,-6.43 -11.34,-11.52l-3.64 -4.04c-0.35,-0.39 -0.75,-0.9 -1.12,-1.38 -0.86,-1.12 -3.93,-4.53 -4.43,-5.53l6.84 3.33c5.6,2.93 15.6,6.36 21.69,8.23 20.03,6.14 34.1,5.66 54.36,4.57 12.47,-0.67 31.22,-2.18 42.18,-7.89 3.75,-1.96 3.45,-2.44 5.77,-4.06 -2.18,7.35 -8.88,15.79 -12.96,19.32 -0.77,0.66 -1.41,1.29 -2.2,1.96l-2.19 1.76c-3.07,2.46 -11.85,8.1 -15.24,8.87l-0.43 -1.43c0.84,-0.29 2.89,-1.4 3.77,-1.88 2.99,-1.62 7.48,-4.25 9.98,-6.18 -0.83,0.31 -1.8,0.99 -2.65,1.46 -2.57,1.43 -5.72,2.84 -8.45,4.02 -5.48,2.36 -4.58,0.65 -6.62,1.69 -1.92,0.97 -3.31,2.7 -5.7,1.12 0.72,-0.49 2.91,-1.04 3.99,-1.39 3.6,-1.19 8.01,-3.23 11.15,-5.04 2.17,-1.25 11.11,-6.95 12.48,-8.98 -1.55,0.96 -3.02,1.94 -4.71,3.02 -13.2,8.41 -33.18,11.93 -49.17,10.22 -2.25,-0.24 -4.45,-0.53 -6.61,-0.91 -8.22,-1.44 -15.93,-3.71 -23.53,-6.82l-10.62 -4.73c0.34,0.56 -0.02,0.06 0.34,0.44l1.87 1.28c8.55,5.95 22.37,11.91 32.61,13.7 1.22,0.22 4.94,0.71 5.53,1l-1.58 1.08c-2.92,-2.18 -2.49,-1.92 -6.22,-0.96 -1.06,0.27 -5.54,-0.84 -6.87,-1.1 -2.27,-0.45 -4.47,-1 -6.63,-1.67l-6.27 -2.03c0.5,0.8 2.97,2.92 3.98,3.69 1.19,0.9 4.24,2.72 4.2,3.25zm-8.26 20.01c0.25,-0.38 0.02,0.07 0.22,-0.37 0.25,-0.55 0.08,-0.15 0.24,-0.66 -3.09,-1.45 -6.06,-2.63 -9.08,-4.15 -9.41,-4.75 -16.16,-8.34 -24.55,-14.72 -3.83,-2.91 -5.52,-4.68 -8.42,-7.99 -0.33,-0.38 -1.08,-1.34 -1.42,-1.9 -2.35,-3.92 1.19,-11.1 5.74,-12.26 0.93,-0.24 2.03,-0.39 3,-0.21 1.33,0.24 4.03,3.49 5.56,4.33 -0.71,-1.14 -1.14,-1.48 -2.18,-2.51 -0.68,-0.68 -1.02,-1.11 -1.19,-1.71 -0.26,-0.95 0.26,0.77 -0.07,-0.34 -0.33,-1.13 -0.47,-0.61 -1.65,-1.69 -2.8,-2.55 -5.7,-5.71 -5.7,-9.97 0,-2.56 1.42,-5.14 2.99,-6.03 4.69,6.02 9.62,12.05 14.85,17.35l5.28 5.33c0.99,0.85 1.77,1.9 2.76,2.64l5.74 5.07c5.44,4.4 9.09,7.33 15.38,11.15l-0.79 3.8c-0.95,-0.31 -3.42,-1.77 -4.37,-2.32l-19.26 -10.66 -8.9 -7.49c0.43,1.41 9.4,9.53 10.67,10.7l5.76 5.04c4.04,3.15 10.68,8.43 15.4,9.39l-0.63 3.95c-0.01,0.04 -0.05,0.19 -0.06,0.16 -0.01,-0.03 -0.04,0.11 -0.07,0.15 -1.52,-0.77 -8.79,-5.7 -10.69,-7l-31.33 -21.16c0.23,0.38 0.05,0.12 0.31,0.42 0.01,0.01 0.29,0.31 0.33,0.34 0.18,0.17 0.34,0.31 0.54,0.48l3.72 3.13c3.25,2.72 7.89,6.75 11.1,9.06 0.46,0.33 0.79,0.67 1.24,1.03l13.01 9.44c2.72,1.75 8.56,5.6 11.48,6.46l-0.16 1.56c-2.35,-0.28 -16.87,-6.75 -19.19,-7.01 0.04,0.01 17.38,7.46 18.94,8.41l-0.11 1.19c-0.63,0.91 -0.69,0.27 -0.97,1.12l0.56 0.35c0.09,2.05 -0.97,7.18 -1.3,9.57 -2.87,20.7 -4.91,38.42 -6.56,59.31 -0.18,2.32 -0.89,8.5 -0.6,10.41 0.33,1.2 -0.03,0.61 0.7,1.39 0.01,-0.03 0.12,-0.47 0.13,-0.48 0.23,-0.56 0.17,-0.38 0.29,-0.59 0.08,-10.32 4.26,-47.65 5.59,-57.42 1.25,-9.24 2.48,-18.49 3.96,-27.61 0.73,-4.51 1.47,-8.99 2.22,-13.56 0.37,-2.24 1.7,-3.63 3.73,-4.18 2.78,-0.76 4.44,0.46 6.7,0.9l-1.75 48.06c-0.04,1.04 -0.09,2.1 -0.11,3.13l-1.11 45.2c0.95,-15.69 2.12,-31.56 2.96,-47.4 0.88,-16.47 1.15,-32.98 1.42,-49.48 2.34,-1.41 5.06,-0.48 5.2,2.2 0.41,8.04 0.45,18.33 0.53,26.4 0.06,5.95 0.01,11.87 -0.15,17.82 -0.07,2.67 -0.76,16.16 -0.27,17.41 0.33,-0.14 0.51,0.15 0.55,-1.52l1.04 -53.65c0.01,-2.34 -0.22,-6.18 0.05,-8.31 3.77,-2.65 5.78,-0.14 6.89,0.19 0.52,8.08 1.47,16.25 2.01,24.35 1.85,28.13 1.54,49.69 1.39,77.56 0.61,-3.75 0.7,-8.67 0.93,-12.54 0.72,-12.11 1.34,-27.65 0.81,-39.45 -0.77,-17.03 -2.62,-33.74 -3.73,-50.63 3.11,-0.69 4.53,-0.54 5.84,1.99 1.9,3.68 4.54,17.26 5.37,21.65 3.83,20.05 5.13,46.57 4.75,67.05 -0.05,2.63 -0.32,33.26 -0.03,35.53l0.19 0.4c0.35,1.2 0.13,17.93 0.13,19.12l-19.11 0c0.26,-0.44 -0.02,-0.2 0.21,0.22 0.07,6.75 0.62,16.56 0.27,23.47 -0.01,0.2 -0.04,0.64 -0.02,0.82 0.13,1.53 -0.2,-0.95 0.06,0.36l0.11 0.33c0.62,-0.99 0.26,-4.97 0.25,-6.09l-0.19 -12.47c-0.01,-1.85 -0.22,-4.69 -0.02,-6.4 0.34,0.21 0.36,0.74 0.64,1.1 -0.05,-1.21 -0.29,-0.97 0.57,-1.07 1,2.09 -0.01,21.62 1.03,23.4 0.48,-1.13 0.05,-9.76 0.02,-11.83l-0.16 -11.16c0.01,-0.05 0.03,-0.11 0.04,-0.15l0.11 -0.26c0.84,1.99 -0.23,22.96 0.83,24.01 0.28,-0.47 0.18,-0.46 0.18,-1.21 -0.01,-3.54 0.12,-7.19 -0.07,-10.71 -0.19,-3.58 -0.29,-8.54 -0.14,-12.12 0.44,0.62 0.26,1.91 0.27,2.66 0.02,1.04 0.03,2.07 0.03,3.12 -0,2.08 0.07,4.01 0.08,6.02 0.01,1.86 -0.1,11.17 0.22,12.17 1.03,-0.91 0.35,-3.9 0.26,-5.52 -0.21,-4.05 0.08,-8 -0.01,-12.05 -0.05,-2.07 -0.16,-4.37 -0.06,-6.42 0.38,0.41 0.06,-0.19 0.24,0.44 0.6,2.15 -0.32,21.83 0.69,23.6 0.6,-0.63 0.26,-4.93 0.25,-5.98 -0.03,-2.08 -0.06,-4.15 -0.1,-6.23 -0.03,-1.92 -0.71,-10.91 -0.18,-11.78 0.67,1.23 0.6,17.24 0.63,20.92 0.01,0.56 -0,1.12 -0.01,1.67l0.21 1.43c1.15,-1.01 0.53,-3.97 0.47,-5.6 -0.08,-2.15 -0.17,-4.31 -0.24,-6.43 -0.08,-2.08 -0.19,-4.16 -0.21,-6.24 -0.01,-0.9 -0.55,-5.33 0.7,-5.7 0.23,3.24 0.12,6.38 0.15,9.44 0.03,3.33 0.25,6.55 0.43,9.86l0.32 -1.01c0.23,-2.28 0.07,-6.32 0.07,-8.64 -0,-1.63 -0.01,-3.3 -0.05,-4.91l-0.15 -3.63c-0,-0.15 -0.02,-0.44 0,-0.59l0.19 -0.56c0.48,1.28 0.31,12.63 0.29,14.88 -0.02,2.49 -0.06,4.99 -0.06,7.48 0,2.18 -0.71,5.16 0.33,6.86 1.69,0.1 1.43,-0.82 1.36,-2.29 -0.05,-1.15 -0,-2.59 -0.33,-3.53 -0.68,-1.96 0.24,-4.84 -0.3,-6.9 -0.04,1.56 0.36,6.81 -0.21,7.72l-0.55 -24.17c0.73,0.65 0.53,2.21 0.61,3.09l0.06 -3.19c1.09,1.14 -0.19,7.85 0.7,9.56l-0.06 -9.57c0.31,0.33 0.12,-0.11 0.29,0.51 0.51,1.87 0.09,20.83 0.06,23.57 -0.02,1.71 -1.08,6.73 0.93,7.02 1.2,-0.25 1.08,-6.68 0.7,-7.7 -0.52,-1.39 -0.45,-14 -0.48,-15.95l-0.4 -5.94c-0.04,-0.63 0.14,-1.06 0.6,-1.5 0.23,3.15 0.21,6.26 0.53,9.42 0.19,1.93 -0.01,2.18 0.6,2.9 0.04,-1.69 -0.42,-10.55 0,-12.03l0.12 -0.25c0.15,0.43 0.57,28.23 0.46,28.53l-0.36 -5.29c0.03,1.66 -1.12,6.25 1.02,5.64 0.22,-0.7 0.04,-1.58 0.17,-2.37 0.05,-0.28 -0.45,0.43 0.25,-0.74l0.01 2.33c0.09,-2.1 0.47,-4.29 0.43,-6.78 -0.03,-2.38 -0.24,-4.76 -0.42,-7.03l0 6.73c-0.47,-0.68 -0.29,-1.79 -0.3,-2.61 -0.05,-4.99 -0.79,-15.2 -0.57,-18.42 0.43,0.17 -0.05,-0.05 0.29,0.24 0.33,0.29 0.04,0.18 0.47,0.4 0.44,-0.21 0.36,-0.49 0.7,-0.58 0.24,5.1 0.26,10.32 0.7,15.38 0.19,2.16 -0.42,11.56 0.4,12.2 2.04,0.94 1.47,-2.74 1.44,-4.24 -0.06,-3.03 -0.23,-15.37 -0.68,-17.5 -0.04,3.11 0.77,19.95 -0.02,21.27l-0.47 -27.21c0.92,0.66 -0.47,0.41 0.87,0.65 1.17,0.21 0.6,-0.03 1.02,-0.64 0.35,4.01 -0.12,21.88 0.73,23.71l1.18 -0.02c0.81,-1.9 0.12,-15.53 0.05,-18.83 -0.02,-0.78 -0.03,-16.12 0.19,-16.66 0.38,-0.95 0.69,-0.13 0.59,-2.02 0.39,0.32 0.47,0.47 1.21,0.43l0.64 -0.97c2.76,1.33 1.28,-3.19 1.06,-4.62 -0.85,-5.53 -1.16,-11.11 -2.1,-16.61 -0.14,-0.83 -0.33,-1.66 -0.21,-2.49l0.25 -0.85c0.22,1.02 -0.16,0.76 0.56,1.1 0.21,-0.24 0.14,0.83 0.25,-1.34l-2.52 0.25c-0.06,-8.89 0.23,-17.69 0.2,-26.58 -0.01,-4.37 -0.13,-8.72 -0.3,-13.09 -0.09,-2.31 0.12,-3.88 0.07,-6.23l-1.67 -58.8c0.93,-0.53 4.39,-1.93 5.22,-1.62 1.02,2.37 4.39,28.81 4.8,33.05 0.32,0.06 0.68,0.11 0.69,-1.08 0.01,-1.35 -1.95,-2.95 -0.06,-4.53l-0.03 -0.99c0.28,-2.69 -3.64,-22.4 -3.92,-27.54l5.21 -2.26c1.26,5.11 2.47,12.5 3.51,18.03l1.03 6.2c0.13,0.12 0.32,0.13 0.44,0.26 1.2,-1.25 1.31,-1.09 3.44,-1.14 4.35,-0.19 16.9,-8.35 21.08,-11.3 3.5,-2.47 15.16,-12.51 16.07,-16.36 0.96,-4.04 -1.06,-8.62 -4.47,-10.67 -1.44,-0.87 -2.42,-1.13 -4.26,-1.38 0.9,-2.54 6.4,-10.07 2.71,-15.57 -0.65,-0.97 -2.58,-2.51 -4.33,-2.56 -1.99,2.14 -1.34,2.3 -5.28,5.02 -2.09,1.43 -4.64,2.5 -7.14,3.46 -4.85,1.86 -11.81,3.06 -17.4,3.79 -3.09,0.4 -6.19,0.77 -9.35,1.05 -8.1,0.7 -21.85,1.56 -29.96,1.47 -20.99,-0.22 -43.81,-6.78 -61.89,-16.7 -0.87,-0.47 -2.73,-1.62 -3.55,-1.88 -0.99,0.01 -2.82,2.32 -3.47,3.42 -2.43,4.08 0.3,10.57 3.68,13.64 0.08,0.07 0.41,0.39 0.43,0.4l0.5 0.64c-1.04,0.43 -2.2,0.06 -4.54,1.58 -3.91,2.53 -6.57,8.84 -4.39,12.65 0.83,1.45 1.68,2.31 2.56,3.46 1.36,1.78 4.44,4.54 6.39,6.08 1.16,0.92 2.23,1.75 3.52,2.72 4.62,3.48 10.07,6.45 15.14,9.38 1.94,1.12 15.24,7.9 16.69,7.91z"/>
   <path fill="white" stroke="#EC268F" stroke-width="1.05" stroke-miterlimit="2.61313" d="M53.87 42.4c0.04,-0.54 -3.02,-2.35 -4.2,-3.25 -1.01,-0.77 -3.48,-2.89 -3.98,-3.69l6.27 2.03c2.16,0.67 4.36,1.22 6.63,1.67 1.34,0.27 5.81,1.38 6.87,1.1 3.73,-0.96 3.29,-1.23 6.22,0.96l1.58 -1.08c-0.6,-0.28 -4.31,-0.78 -5.53,-1 -10.24,-1.79 -24.06,-7.75 -32.61,-13.7l-1.87 -1.28c-0.36,-0.38 -0,0.12 -0.34,-0.44l10.62 4.73c7.6,3.12 15.31,5.38 23.53,6.82 2.16,0.38 4.36,0.67 6.61,0.91 15.99,1.7 35.97,-1.81 49.17,-10.22 1.69,-1.08 3.16,-2.07 4.71,-3.02 -1.36,2.03 -10.31,7.73 -12.48,8.98 -3.14,1.81 -7.56,3.85 -11.15,5.04 -1.07,0.36 -3.26,0.9 -3.99,1.39 2.4,1.58 3.79,-0.15 5.7,-1.12 2.04,-1.04 1.14,0.67 6.62,-1.69 2.74,-1.18 5.88,-2.59 8.45,-4.02 0.85,-0.47 1.81,-1.16 2.65,-1.46 -2.5,1.93 -6.99,4.56 -9.98,6.18 -0.88,0.48 -2.94,1.6 -3.77,1.88l0.43 1.43c3.38,-0.77 12.17,-6.41 15.24,-8.87l2.19 -1.76c0.79,-0.67 1.43,-1.3 2.2,-1.96 4.08,-3.53 10.78,-11.97 12.96,-19.32 -2.32,1.62 -2.02,2.1 -5.77,4.06 -10.95,5.71 -29.7,7.22 -42.18,7.89 -20.26,1.1 -34.33,1.57 -54.36,-4.57 -6.09,-1.87 -16.09,-5.3 -21.69,-8.23l-6.84 -3.33c0.5,1 3.57,4.41 4.43,5.53 0.37,0.48 0.77,0.99 1.12,1.38l3.64 4.04c4.53,5.1 6.4,6.97 11.34,11.52 0.48,0.44 0.73,0.85 1.21,1.27l8.3 7.07c1.83,1.39 3.88,2.99 5.83,4.36 0.64,0.45 0.92,0.56 1.51,0.98 0.48,0.34 0.93,0.67 1.47,1.03l3.11 1.72c0.03,0 0.09,0.01 0.14,-0z"/>
   <path fill="white" stroke="#EC268F" stroke-width="1.05" stroke-miterlimit="2.61313" d="M46.07 61.38c0.88,0.37 3.16,1.43 3.99,1.45l0.11 -1.19c-1.57,-0.95 -18.9,-8.41 -18.94,-8.41 2.32,0.26 16.84,6.73 19.19,7.01l0.16 -1.56c-2.92,-0.86 -8.75,-4.71 -11.48,-6.46l-13.01 -9.44c-0.45,-0.36 -0.78,-0.7 -1.24,-1.03 -3.2,-2.31 -7.84,-6.34 -11.1,-9.06l-3.72 -3.13c-0.2,-0.17 -0.36,-0.31 -0.54,-0.48 -0.03,-0.03 -0.32,-0.33 -0.33,-0.34 -0.25,-0.3 -0.08,-0.04 -0.31,-0.42l31.33 21.16c1.89,1.3 9.17,6.23 10.69,7 0.03,-0.05 0.06,-0.18 0.07,-0.15 0.01,0.03 0.05,-0.12 0.06,-0.16l0.63 -3.95c-4.72,-0.96 -11.37,-6.23 -15.4,-9.39l-5.76 -5.04c-1.26,-1.17 -10.23,-9.29 -10.67,-10.7l8.9 7.49 19.26 10.66c0.96,0.55 3.43,2.01 4.37,2.32l0.79 -3.8c-6.3,-3.82 -9.94,-6.75 -15.38,-11.15l-5.74 -5.07c-0.99,-0.73 -1.77,-1.79 -2.76,-2.64l-5.28 -5.33c-5.23,-5.3 -10.15,-11.34 -14.85,-17.35 -1.56,0.88 -2.99,3.47 -2.99,6.03 -0.01,4.26 2.89,7.42 5.7,9.97 1.19,1.08 1.32,0.56 1.65,1.69 0.33,1.11 -0.2,-0.6 0.07,0.34 0.17,0.6 0.51,1.03 1.19,1.71 1.04,1.04 1.48,1.37 2.18,2.51 -1.54,-0.84 -4.23,-4.09 -5.56,-4.33 -0.98,-0.18 -2.08,-0.02 -3,0.21 -4.55,1.16 -8.09,8.34 -5.74,12.26 0.34,0.57 1.09,1.53 1.42,1.9 2.9,3.31 4.59,5.07 8.42,7.99 8.4,6.38 15.14,9.97 24.55,14.72 3.02,1.52 5.99,2.7 9.08,4.15z"/>
   <path fill="#EC268F" stroke="#EC268F" stroke-width="1.05" stroke-miterlimit="2.61313" d="M60.58 209.16c-0.13,-2.99 -0.47,-20.94 0.05,-21.74 0.38,0.97 0.07,9.73 0.07,11.55 -0,3.73 0.39,8.15 0.19,11.73l-0.32 -1.55zm1.11 1.59c-0.26,-0.84 -0.4,-14.79 -0.42,-17.59 -0.01,-1.04 -0.03,-2.08 -0.04,-3.12 -0.01,-1.05 -0.2,-2.2 0.23,-2.6l0.23 11.95c0.02,0.96 -0.05,2.01 0.04,2.92 0.11,1.2 0.14,0.2 0.06,1.22 -0.14,1.84 0.45,6.11 -0.09,7.21zm3.43 -16.6c-0.44,-0.65 -0.35,-0.9 -0.37,-1.83 -0.03,-1.27 -0.28,-4.28 0.03,-4.89 0.75,1.42 0.31,4.82 0.34,6.72zm-6.03 17.36c-0.48,-1.36 0.14,-13.11 -0.82,-15.28l-0.17 16.02c-0.6,-0.8 -0.17,-10.69 -0.16,-12.45 0.02,-3.93 -0.36,-8.68 -0.17,-12.41 0.05,0.04 0.36,0.32 0.37,0.32 0.83,0.33 -0.29,-0.72 0.57,-0.04 0.03,0.02 0.08,0.49 0.16,0.22 0.01,-0.04 0.05,0.1 0.09,0.14 0.34,-0.73 -0.06,-0.48 0.48,-0.53 0.05,1.31 -0.06,5.18 0.45,6.02l-0.11 -4.96c-0.01,-0.75 0,-0.89 0.22,-1.13 0.48,1.86 0.27,10.15 0.24,12.58 -0.05,4.31 0.01,8.27 -0.67,12.39 -0.03,-0.05 -0.07,-0.12 -0.09,-0.16l-0.38 -0.74zm-18.84 -52.16c-0.62,5.8 -0.4,19.61 -0.28,25.91 0.05,2.62 0.6,22.87 1.05,25.31 0.1,-3.93 -0.05,-7.87 -0.14,-11.8 -0.02,-0.79 -0.48,-10.78 0.01,-11.32 0.43,2.03 0.25,9.55 0.3,12.15l0.06 11.71 1.07 0.1c0.79,-1 0.58,-2.65 0.24,-3.86l-0.88 -20.15c0.44,0.57 0.42,1.96 0.48,2.85 0.07,0.86 -0.06,2.14 0.47,2.88l-0.12 -5.76c1,1.23 0.08,22.09 1.06,23.43 0.71,0.75 0.95,0.54 1.45,-0.22l0.69 0.75 -0.44 -18.18c-0.01,-1.04 -0.03,-2.08 -0.04,-3.12 -0.01,-0.74 -0.19,-2.18 0.23,-2.6 0.65,3.09 -0.11,20.94 0.59,23.54 0.17,0.64 -0.12,0.07 0.24,0.47 0.58,-0.32 0.52,-0.1 0.58,-1.04l-0.02 -4.79c-0.02,-2.79 -0.76,-17.59 -0.35,-18.19 0.63,1.62 0.64,16.9 0.6,20.69 -0.01,1.56 -0.36,2.06 0.64,2.22 0.83,-1.13 -0.51,-19.81 -0.45,-22.96l0.95 22.49c0.33,-0.46 0.14,-0.32 0.39,-0.77l0.24 -0.39c0.36,-0.7 -0.3,-18.72 -0.36,-21.31 0.53,0.65 0.47,9.93 0.49,10.76 0.1,3.63 0.18,7.27 0.27,10.89 1.76,0.01 1.06,-3.67 1.03,-4.88 -0.05,-1.87 -0.12,-3.74 -0.16,-5.61 -0.04,-1.7 -0.6,-10.39 -0.1,-11.15 0.9,5.16 -0.17,21.54 0.59,24.67l0.16 -0.3c0.3,-0.85 0.15,-1.95 0.15,-2.83 0,-3.6 -0.65,-20.66 0.01,-21.52l0.25 24.96c0.37,-0.39 0.42,-0.88 0.42,-1.56 -0,-0.55 -0.03,-1.11 -0.03,-1.67l-0.05 -9.56c-0.01,-1.76 -0.46,-11.4 -0.06,-12.14 0.79,0.04 0.59,-0.03 0.61,1.1l0.5 11.63c0.21,4.44 -0.02,9.2 0.29,13.5 0.3,-0.38 0.12,-0.02 0.29,-0.59 0.5,-1.68 -0.99,-24.37 -0.24,-25.68 1,2.12 -0.19,25.05 0.83,26.76 0.92,-0.38 1.12,-1.69 0.94,-2.76 -0.2,-1.14 0.06,-0.44 -0.44,-0.98l-0.08 2.79c-0.51,-0.96 -0.32,-19.99 -0.48,-24.46l0.23 -1.4c0.12,2.1 -0.09,6.34 0.71,7.96l-0.09 -7.95c0.3,0.34 0.15,-0.26 0.29,0.78 0.25,1.85 0.18,11.97 0.21,13.93 0.04,2.5 0.08,4.99 0.12,7.48 0.03,1.96 -0.43,5.71 0.43,7.06 1.65,0.18 1.48,-1.03 1.46,-2.49l-0.38 -11.44c-0.13,-2.48 -0.3,-4.97 -0.38,-7.47 -0.03,-0.97 -0.85,-6.42 -0.24,-7.12 0.72,2.14 0.21,5.85 0.46,8.31l0.2 2.14c0.01,0.07 0.03,0.14 0.05,0.2l0.11 0.38c-0.01,-1.74 -0.39,-10.96 0.01,-11.7 0.4,0.81 0.36,20.05 0.53,23.81 0.09,1.97 -0.22,6.14 0.73,7.42 2.24,0.26 1.22,-2.84 1.33,-5.15 0.24,0.88 0.69,1.25 1.61,0.69l0.46 1.1 1.16 -0.14c0.75,-1.76 0.01,-11.29 -0.02,-13.67 -0.03,-2.12 -0.54,-13.08 0.03,-14.05 0.26,0.6 0.44,20 0.55,24.22l0.21 1.38c0.01,-0.03 0.04,0.12 0.07,0.17 0.59,-0.31 0.35,-0.06 0.51,-0.72 0,-0.01 0.03,-0.77 0.03,-0.83l-0.04 -5c-0.03,-2.02 -0.29,-4 -0.17,-6 0.26,-4.18 -0.61,-9.07 -0.35,-13.28 0.36,0.47 0.26,0.63 0.29,1.41l0.64 23.39c0.18,-1.41 -0.08,-0.38 0.32,-0.59 0.02,-0.01 0.32,-0.09 0.36,-0.09l0.25 -0.05c0.1,-5.75 -0.45,-11.31 -0.47,-16.95 0.79,1.23 0.22,0.48 0.27,0.75 0.01,0.02 0.05,0.58 0.05,0.62 0.02,0.36 0.02,0.76 0.03,1.12 0.04,0.96 0.09,1.87 0.19,2.82 0.51,-0.19 0.21,0.12 0.62,-0.38 0.36,-0.44 0.12,-0 0.33,-0.76 0.06,0.03 -0.39,-10.62 0.04,-11.24 0.4,0.86 0.18,4.11 0.21,5.32l0.07 4.58c0.08,0.52 -0.07,-0.15 0.09,0.41l0.17 0.38c0.31,-0.09 1.17,-0.18 0.7,-0.58 0,4.64 0.21,8.65 0.21,13.3 0.37,-0.3 0.7,-0.12 0.64,-1.87 -0.02,-0.63 -0.02,-1.24 -0.02,-1.87l-0 -9.57c0.09,-1.12 0.59,-0.71 0.21,-1.03l0.42 14.54c0.57,-0.46 0.7,-0.17 0.63,-2.08 -0.09,-2.66 0.14,-8.19 -0.16,-10.29 -0.45,-3.16 0.66,-3.37 0.15,-3 0.51,0.38 0.21,2.71 0.21,3.53 -0.01,1.57 0.22,2.29 0.21,3.73l0.41 7.9c0.99,-1.19 0.19,-7.12 0.2,-8.51 0,-0.66 0.04,-1.46 -0.01,-2.11 -0.06,-0.75 -0.2,-1.15 -0.2,-2.05l0.04 -3.07c0.03,-0.44 0.26,-0.25 -0.03,-0.47 0,1.52 0.22,2.41 0.21,3.94 -0.01,1.46 0.01,2.91 -0,4.37l0.37 6.88c0.28,1.47 -0.19,0.53 0.67,1.22l-0.2 -11.44c-0.06,-1.96 -0.37,-2.26 -0.18,-5.33 0.03,-0.44 0.26,-0.25 -0.03,-0.47 0,2.9 0.21,5.04 0.2,7.9 -0.01,1.72 0.26,3.52 0.2,6.02 -0.02,0.97 -0.11,1.43 0.42,2.08 0.05,-0.06 0.11,-0.23 0.13,-0.2 0.04,0.06 0.44,-0.56 0.26,-1.89 -0.08,-0.62 -0.19,-1.2 -0.19,-2.05 0.01,-1.46 0,-2.92 0.01,-4.37 0,-2.55 -0.55,-6.39 -0.05,-8.62 0.51,-1.36 -0.66,-3.69 0.26,-5.19 0.32,0.61 1.02,0.45 0.71,3.58l0.11 -3.64c0.32,0.4 0.26,0.22 0.27,1.61l0.39 22.32c-0.13,0.52 -0.51,0.52 -0.15,1.48 0.21,0.57 0.53,0.63 1.02,0.82 0.31,-5.77 -0.13,-16.72 -0.45,-23.12 -0.04,-0.72 -0.28,-2.61 0.19,-3.09 0.47,1.44 0.5,10.27 0.56,12.45 -0.08,-2.21 -0.45,-10.94 0.28,-12.47l0.58 9.45 0.46 16.04c1.08,-0.32 0.71,-1.61 0.68,-2.88 -0.03,-1.11 -0.06,-2.22 -0.09,-3.33 -0.05,-2.22 -0.14,-4.38 -0.21,-6.65 -0.07,-2.27 -0.63,-11.75 -0.17,-12.59 0.54,0.83 0.43,23.49 1.45,24.54 0.64,-1.47 0.04,-15.41 -0.06,-18.81l-0.05 -5.36c0.22,-0.63 -0.41,-0.15 0.32,-0.44 -0.22,-0.42 0.05,-0.66 -0.21,-0.22l19.11 0c0,-1.19 0.22,-17.92 -0.13,-19.12l-0.19 -0.4 0.04 19.19 -55.79 -0.03c-0.05,-4.68 -0.16,-9.27 -0.11,-13.97 0.03,-2.36 0.09,-4.71 0.14,-7.07 0.04,-1.88 0.38,-5.05 0.08,-6.75l-0.13 -0.63c-0.68,0.65 -0.28,0.54 -1.05,1z"/>
   <path fill="white" stroke="#EC268F" stroke-width="1.05" stroke-miterlimit="2.61313" d="M110.36 41.07l0.67 3.78c2.7,-1.04 13.06,-8.86 15.15,-10.54 2.96,-2.38 7.69,-6.43 10.3,-9.03 0.91,-0.91 2.4,-2.5 3.34,-3.11 -1.22,1.91 -1.72,2.2 -2.96,3.7 -1.78,2.16 -4.68,4.94 -6.74,6.76 -0.67,0.59 -0.92,1.14 -1.64,1.68l-3.66 3.2c-3.13,2.81 -6.09,5.08 -9.33,7.72 -1.11,0.91 -3.05,2.23 -3.77,3.11l0.6 3.38c12.77,-1.71 24.02,-14.96 28.69,-24.18 2.19,-4.32 6.01,-10.17 6.78,-14.4 0.62,-3.4 -0.49,-6.67 -3.21,-7.2 -1.07,2.01 -1.58,6.24 -5.49,11.77 -3.06,4.33 -4,5.84 -7.9,9.56 -4.83,4.61 -9.11,7.54 -15.1,10.87 -1.53,0.85 -4.56,2.03 -5.74,2.92z"/>
   <path fill="white" stroke="#EC268F" stroke-width="1.05" stroke-miterlimit="2.61313" d="M113.75 59.84c0.88,0.15 13.45,-4.39 15.19,-5.09 6.93,-2.8 15.13,-10.25 20.37,-15.79 0.79,-0.83 1.58,-1.81 2.33,-2.66 3.69,-4.2 -0.48,-11.68 -4.99,-12.22 -0.77,0.93 -0.92,1.38 -1.53,2.37 -2.16,3.52 -4.27,6.08 -6.61,9.19 -0.69,0.93 -1.18,1.34 -1.8,2.14 -1.23,1.6 -2.5,2.66 -3.77,4.13 -1.88,2.2 -6.35,5.55 -8.71,7.08 -3.33,2.15 -6.95,3.73 -11.63,4.19l0.65 3.83c5.41,0.58 10.57,-2.68 13.5,-5.09 3.44,-2.83 6.01,-5.79 8.82,-9.79 -0.49,1.88 -2.27,5.09 -3.27,6.4 -4.35,5.67 -10.79,9.64 -18.65,10.45l0.11 0.86z"/>
   <path fill="#EC268F" stroke="#EC268F" stroke-width="1.05" stroke-miterlimit="2.61313" d="M102.72 154.56c0.52,-0.33 0.38,0.19 0.12,-1.83 -0.08,-0.64 -0.2,-1.46 -0.24,-2.16 0.75,0.61 0.62,-0.91 0.62,1.05 -0.22,-0.18 -0.31,0.3 -0.19,-0.3 0.15,-0.74 0.05,-0.32 0.45,-0.75l1.22 9.75c-0.8,-0.76 -0.6,-1.33 -0.84,-2.86l0.41 6.07c-0.49,-0.78 -0.06,-2.09 -0.64,-3.21l1.32 13.36c0.57,-0.3 0.02,-0.04 0.43,-0.28 0.27,-0.16 0.09,-0.06 0.41,-0.19l-1.03 -10.94c0.02,0.05 0.04,0.11 0.05,0.17l0.32 2.39c0.12,1 0.25,1.96 0.35,2.97 0.11,1 0.18,2.03 0.29,3.03 0.05,0.5 0.09,1.08 0.15,1.56l0.41 1.03c0.84,-0.75 0.39,-1.83 0.22,-3.12 -0.46,-3.62 -2.85,-21.36 -2.51,-22.17 0.39,0.78 1.4,10.75 1.57,12.43 0.22,2.16 0.7,3.38 1.03,5.67 0.27,1.91 0.32,4.51 0.93,6.18 0.34,-0.38 0.09,0.08 0.26,-0.48 0.49,-1.62 -0.88,-10.48 -1.12,-11.98 -0.22,-1.38 -1.47,-11.49 -1.24,-12.06 0.86,3.78 0.98,8.45 1.56,12.36 0.25,1.69 1.04,12.07 1.38,12.48 0.79,-1.29 -2.42,-21.58 -2.24,-24.24 0,-0.05 0.01,-0.12 0.02,-0.16l2.76 23.94c0.46,-0.77 0.22,-1.06 0.2,-2.08 0.04,0.06 0.05,0.14 0.08,0.19 0.18,0.46 0.22,0.97 0.6,1.08 0.44,-0.49 0.19,0.12 0.22,-0.74 0.06,-1.49 -0.6,-4.92 -0.79,-6.45 -0.33,-2.65 -0.74,-5.01 -0.95,-7.64 0.64,0.91 0.64,2.47 0.73,3.67 0.14,1.96 0.96,9.65 1.43,10.64 0.36,-0.91 -0.03,-2.43 -0.05,-3.63 0.16,0.27 0.06,0.02 0.21,0.52 0.33,1.11 0.09,2.74 0.63,3.69 0.39,-0.34 0.35,-0.78 0.28,-1.4 -0.65,-6.03 -2.2,-17.89 -2.39,-22.52 0.7,0.84 0.13,0.02 0.33,0.68l0.27 2.21c0.44,2.91 0.57,6.12 0.91,9.03 0.19,1.6 0.77,9.88 1.22,11.25 0.18,0.54 0.05,0.29 0.36,0.61 0.52,-1.38 -0.26,-4.17 -0.5,-5.82l-1.71 -18.06c0.29,0.34 0.32,0.91 0.36,1.49 0.31,3.93 2.2,21.51 2.69,22.38l-2.21 -23.75c0,-0.06 0.03,-0.09 0.05,-0.12 0.81,2.28 1.21,8.99 1.56,11.83 0.24,1.92 0.86,11.04 1.35,11.96 1.27,-0.85 0.27,-4.26 0.06,-5.82 -0.55,-4.18 -1.25,-8.39 -1.61,-12.57 -0.22,-2.58 -0.91,-3.99 0.09,-5.58 1.15,3.03 1.04,16.35 2.68,20.13 0.1,-4.98 -0.71,-10.39 -1.35,-15.34 -0.18,-1.38 -0.54,-3.65 -0.54,-4.87l0.05 -0.33 -12.32 1.25 2.35 20.46c0.09,0.82 0.41,2.63 0.36,3.31 -0.03,0.37 -0.96,2.24 1.12,2.28 -0.19,-4.37 -1.46,-14.64 -2.14,-19.67 -0.15,-1.09 -0.29,-2.18 -0.44,-3.28 -0.08,-0.61 -0.53,-2.42 -0.15,-2.92 0.35,1.13 0.86,5.12 0.75,6.21z"/>
   <path fill="#EC268F" stroke="#EC268F" stroke-width="1.05" stroke-miterlimit="2.61313" d="M108.63 78.77c-0.39,-0.34 -0.61,-0.55 -0.94,-0.86 -0.71,-0.65 -0.39,-0.84 -0.66,-0.25 -0.26,1.42 1.34,13.83 1.58,16.41 0.51,5.47 0.95,10.94 1.35,16.43 0.41,5.67 0.6,11.37 0.97,17.01 0.09,1.43 0.68,14.71 2.13,15.81 0.97,-2.52 -0.04,-12.97 -0.22,-16.44 -0.61,-11.61 -2.16,-37.48 -4.2,-48.11z"/>
   <path fill="#EC268F" stroke="#EC268F" stroke-width="1.05" stroke-miterlimit="2.61313" d="M89.6 45.74c-0.05,2.09 0.01,1.17 0.79,4.02 1.06,3.85 2.09,8.99 2.86,12.93 1.25,6.38 1.7,11.46 2.64,17.3l0.3 1.06c0.32,-7.87 -1.45,-27.11 -1.74,-36.66l-4.85 1.36z"/>
   <path fill="#EC268F" stroke="#EC268F" stroke-width="1.05" stroke-miterlimit="2.61313" d="M115.35 76.35c-0.12,1.19 1.84,12.62 2.14,15.08 0.61,4.98 1.45,9.92 2.09,14.95 1.28,10.13 2.59,20.32 3.59,30.52l0.92 -0.69 0.09 -0.9c0.27,-1.62 -1.32,-12.61 -1.61,-15.1 -0.59,-5.01 -1.2,-10 -1.88,-14.96 -1.35,-9.79 -2.92,-19.49 -4.2,-29.07l-0.5 -0.36c-0.56,-0.35 0.47,0.15 -0.31,-0.12 -0.43,0.27 -0.18,-0.55 -0.34,0.65z"/>
   <path fill="#EC268F" stroke="#EC268F" stroke-width="1.05" stroke-miterlimit="2.61313" d="M66.99 198.11c-0.22,0.13 0.01,-0.45 -0.15,0.28 -0.2,0.89 0.48,14.96 0.02,16.1 -0.5,-0.79 -0.21,-13.49 -0.46,-15.82 -0.21,0.75 0.02,0.32 -0.33,0.76 -0.41,0.5 -0.11,0.2 -0.62,0.38 -0.14,1.83 0.09,10.02 0.48,12.31 0.2,1.18 -0.23,4.34 1.44,3.62 0.65,-0.28 0.57,-1.1 0.68,-1.89 0.26,0.27 0.54,0.26 1.23,0.16l0.3 -1.59c0.72,0.65 1.39,0.88 1.71,-0.43 2.25,0.94 2.08,-1.35 1.76,-3.39 -0.55,-3.57 0.25,-13.47 -0.62,-15.96 -0.5,2.23 0.05,6.06 0.05,8.62 -0,1.46 0,2.92 -0.01,4.37 -0,0.85 0.11,1.43 0.19,2.05 0.17,1.33 -0.22,1.95 -0.26,1.89 -0.02,-0.03 -0.08,0.14 -0.13,0.2 -0.54,-0.65 -0.44,-1.1 -0.42,-2.08 0.05,-2.5 -0.21,-4.3 -0.2,-6.02 0.01,-2.86 -0.2,-4.99 -0.2,-7.9 0.3,0.23 0.06,0.03 0.03,0.47 -0.19,3.07 0.12,3.37 0.18,5.33l0.2 11.44c-0.86,-0.69 -0.39,0.25 -0.67,-1.22l-0.37 -6.88c0.01,-1.46 -0,-2.91 0,-4.37 0.01,-1.53 -0.21,-2.43 -0.21,-3.94 0.3,0.23 0.06,0.03 0.03,0.47l-0.04 3.07c0,0.9 0.14,1.3 0.2,2.05 0.05,0.65 0.01,1.45 0.01,2.11 -0.01,1.39 0.79,7.32 -0.2,8.51l-0.41 -7.9c0.01,-1.44 -0.22,-2.16 -0.21,-3.73 0,-0.82 0.3,-3.15 -0.21,-3.53 0.5,-0.37 -0.6,-0.16 -0.15,3 0.3,2.11 0.08,7.63 0.16,10.29 0.06,1.91 -0.06,1.62 -0.63,2.08l-0.42 -14.54c0.38,0.32 -0.12,-0.09 -0.21,1.03l0 9.57c0,0.63 0,1.24 0.02,1.87 0.05,1.75 -0.27,1.57 -0.64,1.87 0,-4.65 -0.21,-8.66 -0.21,-13.3 0.47,0.4 -0.4,0.5 -0.7,0.58z"/>
   <path fill="#EC268F" stroke="#EC268F" stroke-width="1.05" stroke-miterlimit="2.61313" d="M116.8 152.98c-0.22,1.9 0.39,4.6 0.44,6.64l-0.32 -0.74c-0.1,-0.29 -0.05,-0.35 -0.23,-0.7l1.22 16.51c-0.22,-0.87 -0.33,-2.24 -0.46,-3.25 -0.26,-1.97 -0.33,0.29 -0.65,-3.17l-2.07 -14.11c-0.44,0.29 -0.31,-0.47 -0.34,0.66 -0.09,1.53 0.37,4.22 0.49,5.92 0.27,4 0.71,7.85 0.81,11.83 0.02,0.89 0.11,3.54 1.25,3.63 0.72,0.06 0.84,-0.36 1.09,-0.61 0.05,1.2 0.23,2.91 1.63,1.97 0.66,-0.63 0.05,-6.91 -0.15,-7.33 -1.05,-2.29 -0.77,-4.11 -1.14,-7.2 -0.58,-4.87 -1.02,-10 -1.89,-14.56 0.21,0.74 0.41,3.95 0.32,4.5z"/>
   <path fill="#EC268F" stroke="#EC268F" stroke-width="1.05" stroke-miterlimit="2.61313" d="M123.9 144.33l0.14 1.25c-0.19,0.12 0.28,0.18 -0.66,0.24l-0.36 0.85c0.01,-0.02 0.05,-0.09 0.06,-0.11 0.24,-0.38 0.05,-0.14 0.35,-0.39 0.55,1.35 1.18,10.3 1.43,12.47 0.23,2.09 0.5,4.22 0.73,6.36 0.14,1.33 -0.02,5.82 1.97,4.47 0.58,-0.93 -0.76,-10.86 -0.98,-12.7l-1.41 -12.58c-0.6,0.36 -0.45,0.25 -1.26,0.14z"/>
   <path fill="#EC268F" stroke="#EC268F" stroke-width="1.05" stroke-miterlimit="2.61313" d="M58.1 212.25l0.17 -16.02c0.96,2.17 0.34,13.92 0.82,15.28l0.38 0.74c0.02,0.04 0.06,0.11 0.09,0.16 0.68,-4.12 0.62,-8.08 0.67,-12.39 0.03,-2.43 0.24,-10.71 -0.24,-12.58 -0.22,0.24 -0.23,0.38 -0.22,1.13l0.11 4.96c-0.51,-0.84 -0.4,-4.71 -0.45,-6.02 -0.54,0.05 -0.14,-0.2 -0.48,0.53 -0.03,-0.05 -0.08,-0.19 -0.09,-0.14 -0.09,0.27 -0.14,-0.2 -0.16,-0.22 -0.86,-0.68 0.26,0.36 -0.57,0.04 -0.01,-0 -0.32,-0.29 -0.37,-0.32 -0.19,3.73 0.19,8.48 0.17,12.41 -0.01,1.76 -0.43,11.65 0.16,12.45z"/>
   <path fill="#EC268F" stroke="#EC268F" stroke-width="1.05" stroke-miterlimit="2.61313" d="M120.69 149.57c-0.06,1.54 0.55,4.74 0.81,6.4 0.33,2.14 0.57,4.27 0.86,6.43l1 9.79c0.07,1.12 0.24,2.37 1.55,1.7 0.88,-0.69 -1.78,-19.5 -2.11,-20.44 -0.04,3.12 2.41,18.56 1.83,19.92l-2.9 -26.29 -0.33 -0.55c-0.07,-0.09 0.04,-0.07 -0.37,-0.28l-0.87 -0.15 0.2 0.32c1.06,1.65 0.18,0.9 0.33,3.14z"/>
   <path fill="#EC268F" stroke="#EC268F" stroke-width="1.05" stroke-miterlimit="2.61313" d="M114.73 154.17l2.07 14.11c0.32,3.46 0.39,1.2 0.65,3.17 0.13,1.01 0.24,2.38 0.46,3.25l-1.22 -16.51c0.19,0.35 0.13,0.4 0.23,0.7l0.32 0.74c-0.05,-2.04 -0.66,-4.74 -0.44,-6.64 -0.58,0.73 -0,2.9 0.01,4.64 -0.04,-0.06 -0.07,-0.14 -0.09,-0.21l-0.16 -0.41c-0.03,-0.08 -0.04,-0.12 -0.07,-0.2 -0.03,-0.08 -0.11,-0.33 -0.13,-0.39l-1.69 -9.3c0,0.21 0.02,0.59 -0.04,0.77 -0.23,0.73 0.18,0.02 -0.37,0.6l-0.23 -1.23c-0.16,0.64 0.45,5.72 0.71,6.91z"/>
   <path fill="#EC268F" stroke="#EC268F" stroke-width="1.05" stroke-miterlimit="2.61313" d="M113.21 146.91l-0.05 0.33c1.03,1.62 0.46,5.84 1.24,7.59 0.04,-1.13 -0.1,-0.37 0.34,-0.66 -0.26,-1.19 -0.87,-6.27 -0.71,-6.91l0.23 1.23c0.55,-0.58 0.14,0.13 0.37,-0.6 0.06,-0.18 0.05,-0.56 0.04,-0.77l1.69 9.3c0.02,0.05 0.1,0.31 0.13,0.39 0.03,0.08 0.04,0.12 0.07,0.2l0.16 0.41c0.02,0.06 0.05,0.14 0.09,0.21 -0.01,-1.74 -0.59,-3.91 -0.01,-4.64 0.09,-0.54 -0.11,-3.76 -0.32,-4.5l0.16 -1.57c0.04,0.06 0.07,0.13 0.09,0.19l0.49 1.35 0.13 -0.78c0.33,-0.16 0.22,-0.09 0.64,-0.17 -0.02,-1 -0.03,-0.4 0.08,-0.69l0.44 3.62c0.12,-0.06 0.5,-0.26 0.58,-0.3 -0.36,-2.16 -0.05,-2.28 -0.15,-3.41 0.62,0.45 -0.56,-0.59 0.22,0.38 0.39,0.48 -0.12,0.22 0.48,0.44l0.54 -0.8c0.01,-0.08 0.03,-0.11 0.06,-0.16 0.09,0.94 0.06,2.33 0.45,2.99 -0.15,-2.24 0.73,-1.49 -0.33,-3.14l-0.2 -0.32 -6.96 0.81z"/>
   <path fill="#EC268F" stroke="#EC268F" stroke-width="1.05" stroke-miterlimit="2.61313" d="M118.51 150.44c0.54,4.2 0.91,8.34 1.4,12.57 0.3,2.6 1.61,10.09 1.34,12.25 -0.45,-0.86 -0.57,-3.3 -0.69,-4.47 -0.18,2.92 -0.53,4.78 1.41,4.7 0.33,-5.03 -2.21,-19.5 -2.88,-25.35 -0.08,0.04 -0.46,0.24 -0.58,0.3z"/>
   <path fill="#EC268F" stroke="#EC268F" stroke-width="1.05" stroke-miterlimit="2.61313" d="M75.02 213.62c0.61,-0.33 0,0.47 0.59,-0.53 -0.58,-0.95 0.15,-11.88 0.22,-13.91l0.26 -1.89 0.09 -0.46 -0.58 -9.45c-0.73,1.52 -0.36,10.26 -0.28,12.47 -0.05,-2.18 -0.08,-11.01 -0.56,-12.45 -0.47,0.48 -0.23,2.37 -0.19,3.09 0.32,6.41 0.76,17.35 0.45,23.12z"/>
   <path fill="#EC268F" stroke="#EC268F" stroke-width="1.05" stroke-miterlimit="2.61313" d="M51.63 52.03l0.35 -1.81 -9.98 -5.15c3.15,2.26 6,4.72 9.63,6.96z"/>
   <path fill="#EC268F" stroke="#EC268F" stroke-width="1.05" stroke-miterlimit="2.61313" d="M115.35 76.35c0.16,-1.19 -0.1,-0.38 0.34,-0.65 0.78,0.27 -0.25,-0.23 0.31,0.12l0.5 0.36c-0.08,-0.52 -1.13,-7.73 -1.51,-8.26l-0.76 0.46 -0.4 -0.61c0.14,1.32 0.5,2.94 0.74,4.35 0.2,1.15 0.13,3.43 0.78,4.22z"/>
   <path fill="#EC268F" stroke="#EC268F" stroke-width="1.05" stroke-miterlimit="2.61313" d="M66.4 198.67c0.25,2.33 -0.04,15.03 0.46,15.82 0.46,-1.14 -0.22,-15.21 -0.02,-16.1 0.16,-0.73 -0.07,-0.15 0.15,-0.28l-0.17 -0.38c-0.16,-0.56 -0.01,0.12 -0.09,-0.41l-0.07 -4.58c-0.03,-1.21 0.19,-4.46 -0.21,-5.32 -0.43,0.63 0.02,11.27 -0.04,11.24z"/>
   <path fill="#EC268F" stroke="#EC268F" stroke-width="1.05" stroke-miterlimit="2.61313" d="M102.72 154.56c0.03,0.88 0.21,1.76 0.31,2.67 0.27,2.51 0.08,2.08 0.87,2.68l-0.51 -6.12c-0.06,0.77 0.02,1.43 0.06,2.02 0.04,0.52 -0.05,0.44 0.09,1l0.32 0.66c0.24,1.53 0.04,2.1 0.84,2.86l-1.22 -9.75c-0.4,0.43 -0.3,0.02 -0.45,0.75 -0.12,0.6 -0.03,0.12 0.19,0.3 0,-1.97 0.13,-0.44 -0.62,-1.05 0.05,0.7 0.16,1.52 0.24,2.16 0.26,2.02 0.4,1.5 -0.12,1.83z"/>
   <path fill="#EC268F" stroke="#EC268F" stroke-width="1.05" stroke-miterlimit="2.61313" d="M106.57 75.2c0.02,0.64 0.08,1.89 0.47,2.46 0.27,-0.59 -0.04,-0.4 0.66,0.25 0.33,0.31 0.55,0.52 0.94,0.86l-1.47 -10.16 0.03 0.99c-1.89,1.58 0.06,3.18 0.06,4.53 -0.01,1.19 -0.37,1.14 -0.69,1.08z"/>
   <path fill="#EC268F" stroke="#EC268F" stroke-width="1.05" stroke-miterlimit="2.61313" d="M75.61 213.09c0.48,-1.26 0.14,0.54 0.64,-0.61l-0.16 -15.19 -0.26 1.89c-0.07,2.03 -0.8,12.96 -0.22,13.91z"/>
   <path fill="#EC268F" stroke="#EC268F" stroke-width="1.05" stroke-miterlimit="2.61313" d="M60.9 210.71c0.19,-3.59 -0.2,-8 -0.19,-11.73 0,-1.82 0.31,-10.58 -0.07,-11.55 -0.52,0.79 -0.17,18.75 -0.05,21.74l0.32 1.55z"/>
   <path fill="#EC268F" stroke="#EC268F" stroke-width="1.05" stroke-miterlimit="2.61313" d="M61.69 210.75c0.55,-1.1 -0.04,-5.38 0.09,-7.21 0.08,-1.02 0.05,-0.03 -0.06,-1.22 -0.08,-0.92 -0.01,-1.97 -0.04,-2.92l-0.23 -11.95c-0.43,0.4 -0.24,1.55 -0.23,2.6 0.01,1.04 0.03,2.08 0.04,3.12 0.03,2.8 0.17,16.75 0.42,17.59z"/>
   <path fill="#EC268F" stroke="#EC268F" stroke-width="1.05" stroke-miterlimit="2.61313" d="M123.18 136.9l0.37 3.78c0.78,0.44 0.82,0.74 1.3,1.4 0.03,0.04 0.09,0.11 0.13,0.16l-0.41 -4.77 -0.11 -0.63 -0.28 -1.54 -0.09 0.9 -0.92 0.69z"/>
   <path fill="#EC268F" stroke="#EC268F" stroke-width="1.05" stroke-miterlimit="2.61313" d="M117.21 148.45c-0.23,2.22 0.88,6.71 1.35,9.22l-0.58 -10.17c-0.42,0.08 -0.31,0.01 -0.64,0.17l-0.13 0.78z"/>
   <path fill="#EC268F" stroke="#EC268F" stroke-width="1.05" stroke-miterlimit="2.61313" d="M114.07 61.29c2.06,0.43 8.32,-2.14 9.49,-3.19 -1.18,0.16 -8.26,2.64 -9.49,3.19z"/>
   <path fill="#EC268F" stroke="#EC268F" stroke-width="1.05" stroke-miterlimit="2.61313" d="M113.31 64.64l0.52 3.13 0.4 0.61 0.76 -0.46c0.12,-1.35 -0.32,-2.73 -0.48,-4.06 -0.76,0.31 -0.03,-0.03 -0.59,0.36l-0.44 0.31c-0.03,-0.05 -0.11,0.07 -0.17,0.1z"/>
   <path fill="#EC268F" stroke="#EC268F" stroke-width="1.05" stroke-miterlimit="2.61313" d="M45.61 62.41c0.55,0.47 0.94,0.52 1.6,0.8 0.67,0.28 1.14,0.53 1.87,0.74 0.29,-0.86 0.35,-0.21 0.97,-1.12 -0.82,-0.03 -3.11,-1.09 -3.99,-1.45 -0.16,0.51 0.01,0.12 -0.24,0.66 -0.2,0.45 0.03,-0.01 -0.22,0.37z"/>
   <path fill="#EC268F" stroke="#EC268F" stroke-width="1.05" stroke-miterlimit="2.61313" d="M43.06 66.21l0.88 1.13c2.66,-1.02 1.38,-3.04 0.27,-2.41 -0.16,0.09 -1,1.04 -1.16,1.27z"/>
   <path fill="#EC268F" stroke="#EC268F" stroke-width="1.05" stroke-miterlimit="2.61313" d="M113 63.04l0.31 1.6c0.06,-0.03 0.14,-0.14 0.17,-0.1l0.44 -0.31c0.56,-0.39 -0.16,-0.05 0.59,-0.36l-0.1 -0.75c0.51,-0.13 0.85,-0.27 1.3,-0.42 0.61,-0.19 0.73,-0.12 1.16,-0.54 -2.13,0.04 -2.24,-0.11 -3.44,1.14 -0.12,-0.12 -0.3,-0.14 -0.44,-0.26z"/>
   <path fill="#EC268F" stroke="#EC268F" stroke-width="1.05" stroke-miterlimit="2.61313" d="M141.82 28.87l1.79 -2.48c0.56,-0.92 1.26,-1.61 1.59,-2.65 -0.86,-0.12 -0.57,-0.76 -1.89,2.16 -0.46,1.01 -1.2,2.06 -1.49,2.98z"/>
   <path fill="#EC268F" stroke="#EC268F" stroke-width="1.05" stroke-miterlimit="2.61313" d="M65.12 194.15c-0.03,-1.9 0.41,-5.3 -0.34,-6.72 -0.31,0.61 -0.06,3.62 -0.03,4.89 0.02,0.94 -0.07,1.18 0.37,1.83z"/>
   <path fill="#EC268F" stroke="#EC268F" stroke-width="1.05" stroke-miterlimit="2.61313" d="M121.03 146.25c0.41,0.21 0.29,0.19 0.37,0.28l0.33 0.55 0.41 0.18 1.15 -0.13 0.15 -0.97c-0.3,0.26 -0.11,0.02 -0.35,0.39 -0.01,0.02 -0.05,0.09 -0.06,0.11l0.36 -0.85c-0.49,0.04 -0.81,0.07 -1.27,0.14 -0.14,0.02 -0.47,0.06 -0.59,0.09 -0.34,0.08 -0.33,0.12 -0.49,0.21z"/>
   <path fill="#EC268F" stroke="#EC268F" stroke-width="1.05" stroke-miterlimit="2.61313" d="M123.81 142.67c0.59,0.23 0.67,0.36 1.28,0.51l-0.11 -0.93c-0.05,-0.05 -0.1,-0.12 -0.13,-0.16 -0.47,-0.66 -0.52,-0.96 -1.3,-1.4l0.26 1.99z"/>
   <path fill="#EC268F" stroke="#EC268F" stroke-width="1.05" stroke-miterlimit="2.61313" d="M123.9 144.33c0.81,0.11 0.66,0.22 1.26,-0.14l-0.07 -1.01c-0.61,-0.15 -0.69,-0.29 -1.28,-0.51l0.09 1.66z"/>
   <path fill="#EC268F" stroke="#EC268F" stroke-width="1.05" stroke-miterlimit="2.61313" d="M89.79 41c0.87,0.09 2.15,-0.03 2.87,-0.35 -0.49,-0.38 -0.91,-0.48 -1.63,-0.35 -0.61,0.12 -0.88,0.35 -1.24,0.7z"/>
   <path fill="#EC268F" stroke="#EC268F" stroke-width="1.05" stroke-miterlimit="2.61313" d="M93.86 39.62l1 0.86 1.42 -1.19c0.02,-0.03 0.07,-0.08 0.11,-0.12l-2.53 0.45z"/>
  </g>
 </g>
</svg>
