<?xml version="1.0" encoding="UTF-8"?>
<!DOCTYPE svg PUBLIC "-//W3C//DTD SVG 1.1//EN" "http://www.w3.org/Graphics/SVG/1.1/DTD/svg11.dtd">
<!-- Creator: CorelDRAW 2021 (64-Bit) -->
<svg xmlns="http://www.w3.org/2000/svg" xml:space="preserve" width="0.295594in" height="0.675484in" version="1.1" shape-rendering="geometricPrecision" text-rendering="geometricPrecision" image-rendering="optimizeQuality" fill-rule="evenodd" clip-rule="evenodd"
viewBox="0 0 22.12 50.56"
 xmlns:xlink="http://www.w3.org/1999/xlink"
 xmlns:xodm="http://www.corel.com/coreldraw/odm/2003">
 <g id="Layer_x0020_1">
  <metadata id="CorelCorpID_0Corel-Layer"/>
  <g id="_1551366604496">
   <path fill="#FDFDFD" stroke="#EC268F" stroke-width="0.52" stroke-miterlimit="2.61313" d="M1.03 46.86c0.95,0.47 2.19,0.47 3.35,0.5 1.34,-5.1 2.25,-11.93 3.19,-17.27l3.71 -17.11c0.6,1.11 2.26,14.68 2.66,17.25 0.69,4.42 1.59,13.32 2.81,17.1l3.19 -0.03c-0.09,0.04 -0.23,0 -0.29,0.15l-1.22 0.46c-0.76,0.16 -0.73,-0.09 -1.59,0.19l0.18 1.37 3.66 0.03c0.34,-2.14 0.11,-1.51 -0.95,-2.36 1.72,-0.28 1.2,-0.1 1.26,-5.25 0.1,-8.01 -0.3,-26.01 -1.12,-33.49 -0.2,-1.8 0.01,-0.98 -1.25,-1.81 -1.67,-1.1 -1.76,-2.07 -2.98,-3.58l-4.03 -0.01c0.18,3 -0.2,2.2 0.55,4.65 0.2,0.66 0.38,-0.38 0.07,0.44 -1.31,-0.13 -1.16,-0.42 -1.1,-4.9 -3.81,-1.14 -3.21,0.2 -6.74,2.89 -1.16,0.88 -0.94,0.55 -1.09,2.3 -0.54,6.45 -2.69,33.83 -2.25,38.49z"/>
   <path fill="#EC268F" stroke="#EC268F" stroke-width="0.52" stroke-miterlimit="2.61313" d="M3.82 49.46c-0.36,-0.05 -1.92,-0.17 -2.12,-0.23 -1.09,-0.31 -0.67,-0.2 -0.73,-1.65l3.31 0.4c-0.04,0.47 0,0.87 -0.46,1.47zm-2.78 -2.59c-0.44,-4.66 1.71,-32.04 2.25,-38.49 0.15,-1.75 -0.07,-1.41 1.09,-2.3 3.53,-2.69 2.93,-4.03 6.74,-2.89 -0.07,4.49 -0.21,4.77 1.1,4.9 0.31,-0.82 0.14,0.21 -0.07,-0.44 -0.75,-2.45 -0.37,-1.64 -0.55,-4.65l4.03 0.01c1.22,1.51 1.31,2.47 2.98,3.58 1.26,0.83 1.05,0.02 1.25,1.81 0.82,7.47 1.22,25.47 1.12,33.49 -0.06,5.14 0.46,4.97 -1.26,5.25 1.07,0.85 1.29,0.22 0.95,2.36l-3.66 -0.03 -0.18 -1.37c0.86,-0.28 0.83,-0.03 1.59,-0.19l1.22 -0.46c0.07,-0.15 0.2,-0.11 0.29,-0.15l-3.19 0.03c-1.22,-3.78 -2.12,-12.68 -2.81,-17.1 -0.4,-2.57 -2.06,-16.14 -2.66,-17.25l-3.71 17.11c-0.94,5.34 -1.84,12.17 -3.19,17.27 -1.16,-0.04 -2.4,-0.03 -3.35,-0.5zm18.6 -40.36c-1.48,-0.56 -2.84,-1.88 -3.02,-3.5l2.78 -0.4 0.24 3.9zm-15.5 -3.8l2.58 0.19c-0.49,1.07 -1.89,2.52 -3.14,2.92l0.55 -3.11zm15.21 -1.23c-1.09,1.63 -14.05,0.83 -15.11,0.31 0.13,-1.06 -0.13,-0.85 1.21,-0.71 3.96,0.44 6.5,0.6 10.57,0.24 3.91,-0.34 2.85,-0.72 3.32,0.16zm-15.68 -0.93c-1.26,7.3 -1.79,16.04 -2.27,23.71 -0.52,8.14 -1.49,17.31 -0.99,25.41l4.3 0.57c0.31,-3.38 5.5,-31.69 6.42,-34.69l5.22 34.03c0.59,1.24 4.61,0.57 4.84,0.32 2.05,-2.17 -1.14,-44.15 -1.19,-49.64 -5.99,0.07 -6.52,1.18 -14.23,0.17l-2.09 0.11z"/>
   <path fill="#FDFDFD" stroke="#EC268F" stroke-width="0.52" stroke-miterlimit="2.61313" d="M4.24 1.79c1.05,0.52 14.02,1.32 15.11,-0.31 -0.47,-0.88 0.59,-0.5 -3.32,-0.16 -4.07,0.36 -6.61,0.2 -10.57,-0.24 -1.34,-0.15 -1.08,-0.35 -1.21,0.71z"/>
   <path fill="#FDFDFD" stroke="#EC268F" stroke-width="0.52" stroke-miterlimit="2.61313" d="M16.61 3c0.18,1.63 1.54,2.94 3.02,3.5l-0.24 -3.9 -2.78 0.4z"/>
   <path fill="#FDFDFD" stroke="#EC268F" stroke-width="0.52" stroke-miterlimit="2.61313" d="M3.58 5.81c1.25,-0.4 2.65,-1.85 3.14,-2.92l-2.58 -0.19 -0.55 3.11z"/>
   <path fill="#FDFDFD" stroke="#EC268F" stroke-width="0.52" stroke-miterlimit="2.61313" d="M3.82 49.46c0.46,-0.6 0.43,-1 0.46,-1.47l-3.31 -0.4c0.06,1.45 -0.36,1.33 0.73,1.65 0.2,0.06 1.76,0.18 2.12,0.23z"/>
  </g>
 </g>
</svg>
