<?xml version="1.0" encoding="UTF-8"?>
<!DOCTYPE svg PUBLIC "-//W3C//DTD SVG 1.1//EN" "http://www.w3.org/Graphics/SVG/1.1/DTD/svg11.dtd">
<!-- Creator: CorelDRAW 2021 (64-Bit) -->
<svg xmlns="http://www.w3.org/2000/svg" xml:space="preserve" width="0.470339in" height="0.514378in" version="1.1" shape-rendering="geometricPrecision" text-rendering="geometricPrecision" image-rendering="optimizeQuality" fill-rule="evenodd" clip-rule="evenodd"
viewBox="0 0 173.04 189.24"
 xmlns:xlink="http://www.w3.org/1999/xlink"
 xmlns:xodm="http://www.corel.com/coreldraw/odm/2003">
 <g id="Layer_x0020_1">
  <metadata id="CorelCorpID_0Corel-Layer"/>
  <g id="_1551360390304">
   <path fill="#FDFDFD" d="M97.78 148.67c7.23,2.89 1.5,-3.46 7.31,5.38 3.16,4.81 1.85,2.46 2.86,9.29 8.85,10.15 47.86,-4.27 58.46,-7 0.86,-22.61 -10.29,-73.67 -14.93,-98.17l-20.87 -9.29c-5.12,-0.99 1.87,7.35 -4.65,-5.57 -4.43,-8.8 -7.71,-8.53 -12.08,-20.84l-18.93 -0.09c-0.69,10.11 0.47,24.27 -3.17,31.15 -7.09,-8.65 1.41,-21.29 -4.02,-30.92 -3.43,5.49 -3.32,19.2 -3.07,27.65 0.47,15.84 4.66,8.46 8.59,17.44l-10.95 -1.03c-4.86,-13.18 -1.55,-28.86 -1.85,-44.3 -16.51,0.24 -21.23,-2.14 -24.45,10.24 -2.7,-3.87 -0.58,-9.18 -0.87,-9.9l-26.07 -1.14 -6.02 29.19 10.71 -0.99c-3.06,1.84 -6.35,2.78 -9.18,3.91 -0.96,2.82 -5.15,0.75 4.13,4.76 -10.78,3.51 -5.97,-0.52 -9.21,6.91 -2.18,5 -13.87,84.92 -12.1,95.38 22.5,9.03 51.77,10.99 77.12,6.64 5.5,-17.33 -4.02,-53.96 3.21,-63.98 4.12,6.84 2.16,17.98 2.5,25.89 0.57,13.22 1.26,9.94 7.51,19.41z"/>
   <path fill="#EC268F" d="M5.15 166.86c12.25,0.48 32.56,8.31 59.34,7.59 3.93,-0.11 8.64,-0.96 11.77,-1.02 0.93,-0.02 3.64,-0.11 4.46,0.01 6.36,0.89 1.52,-0.38 5.7,2.23 -11.38,19.78 -72.99,1.22 -77.16,-0.9 -7.14,-3.63 -3.28,0.04 -4.11,-7.91zm86.25 6.48c0.6,-0.26 1.51,-1.2 1.86,-0.61l17.78 -1.01c7.57,-0 14.93,-0.62 22.45,-1.66 10.77,-1.48 27.18,-7.84 34.56,-7.47 -0.32,12.2 -11.75,14.11 -32.56,18.63 -9.74,2.11 -28.14,3.54 -37,-0.02 -11.06,-4.45 -4.55,0.41 -7.09,-7.86zm26.31 -151.13l25.94 -0.44 6.77 30.78c-16.71,-4.1 -26.01,-14.95 -32.71,-30.34zm-9.75 141.12c-4.23,5.5 4.82,3.44 -7.97,4.86 -2.48,-6.53 -8.96,5.56 -9.36,-13.23 -0.27,-12.51 -0.39,-6.68 3.72,-11.88l3.44 5.58c-6.25,-9.47 -6.94,-6.19 -7.51,-19.41 -0.34,-7.91 1.62,-19.05 -2.5,-25.89 -7.23,10.02 2.29,46.65 -3.21,63.98 -25.35,4.36 -54.62,2.39 -77.12,-6.64 -1.78,-10.45 9.92,-90.37 12.1,-95.38 3.24,-7.42 -1.57,-3.4 9.21,-6.91 -9.28,-4.01 -5.09,-1.94 -4.13,-4.76 2.83,-1.13 6.12,-2.08 9.18,-3.91l-10.71 0.99 6.02 -29.19 26.07 1.14c0.28,0.72 -1.83,6.03 0.87,9.9 3.22,-12.38 7.94,-10 24.45,-10.24 0.3,15.44 -3.02,31.12 1.85,44.3l10.95 1.03c-3.93,-8.97 -8.12,-1.59 -8.59,-17.44 -0.25,-8.44 -0.36,-22.15 3.07,-27.65 5.43,9.64 -3.07,22.27 4.02,30.92 3.64,-6.88 2.48,-21.04 3.17,-31.15l18.93 0.09c4.37,12.31 7.64,12.04 12.08,20.84 6.51,12.92 -0.47,4.57 4.65,5.57l20.87 9.29c4.64,24.49 15.79,75.56 14.93,98.17 -10.6,2.73 -49.61,17.15 -58.46,7zm28.71 -146.85c-5.26,-10.66 -1.6,-10.41 8.1,-11l-1.55 11.17 -6.55 -0.18zm-102.45 -11.44c2.65,3.28 3.68,-5.13 3.27,11.08l-7.93 -0.02c-4.22,-9.83 -1.86,-9.36 4.66,-11.05zm12.08 0.96c14.97,-1.09 31,0.06 46.13,0.16 6.78,0.04 34.69,2.31 39.25,-0.21l-4.02 4.94c-0.21,-1.03 -0.9,-1.16 -1.34,-1.75 -0.7,12.32 -1.93,8.46 -36.22,8.32 -13.85,-0.06 -30.01,2.27 -43.16,-1.52l-0.64 -9.94zm-46.14 171.08c41.72,15.19 52.47,14.43 86.71,7.08 6.19,-1.33 50.86,13.42 85.76,-11.91 3.95,-43.71 -21.54,-121.38 -23.47,-172.13 -20.07,0.63 -115.8,-1.58 -125.44,1.97 -3.25,51.4 -25.77,140.2 -23.57,175z"/>
   <path fill="#FDFDFD" d="M46.94 15.94c13.15,3.79 29.31,1.46 43.16,1.52 34.29,0.15 35.52,4.01 36.22,-8.32 0.44,0.59 1.14,0.72 1.34,1.75l4.02 -4.94c-4.57,2.51 -32.47,0.25 -39.25,0.21 -15.13,-0.1 -31.16,-1.25 -46.13,-0.16l0.64 9.94z"/>
   <path fill="#FDFDFD" d="M91.4 173.34c2.54,8.27 -3.96,3.41 7.09,7.86 8.86,3.57 27.26,2.14 37,0.02 20.81,-4.52 32.25,-6.43 32.56,-18.63 -7.39,-0.38 -23.79,5.98 -34.56,7.47 -7.52,1.04 -14.88,1.66 -22.45,1.66l-17.78 1.01c-0.35,-0.59 -1.26,0.35 -1.86,0.61z"/>
   <path fill="#FDFDFD" d="M64.49 174.45c-26.78,0.72 -47.09,-7.11 -59.34,-7.59 0.83,7.95 -3.04,4.27 4.11,7.91 4.18,2.12 65.79,20.68 77.16,0.9 -4.18,-2.61 0.66,-1.34 -5.7,-2.23 -0.82,-0.11 -3.53,-0.02 -4.46,-0.01 -3.14,0.06 -7.84,0.91 -11.77,1.02z"/>
   <path fill="#FDFDFD" d="M117.7 22.22c6.69,15.38 16,26.24 32.71,30.34l-6.77 -30.78 -25.94 0.44z"/>
   <path fill="#EC268F" d="M107.95 163.33c-1.01,-6.83 0.31,-4.48 -2.86,-9.29 -5.81,-8.83 -0.09,-2.49 -7.31,-5.38l-3.44 -5.58c-4.11,5.2 -3.99,-0.63 -3.72,11.88 0.4,18.79 6.89,6.7 9.36,13.23 12.79,-1.42 3.74,0.64 7.97,-4.86z"/>
   <path fill="#FDFDFD" d="M29.56 16.09l7.93 0.02c0.41,-16.21 -0.62,-7.79 -3.27,-11.08 -6.51,1.7 -8.88,1.23 -4.66,11.05z"/>
   <path fill="#FDFDFD" d="M136.67 16.48l6.55 0.18 1.55 -11.17c-9.7,0.59 -13.36,0.34 -8.1,11z"/>
  </g>
 </g>
</svg>
