<?xml version="1.0" encoding="UTF-8"?>
<!DOCTYPE svg PUBLIC "-//W3C//DTD SVG 1.1//EN" "http://www.w3.org/Graphics/SVG/1.1/DTD/svg11.dtd">
<!-- Creator: CorelDRAW 2021 (64-Bit) -->
<svg xmlns="http://www.w3.org/2000/svg" xml:space="preserve" width="0.340516in" height="0.602394in" version="1.1" shape-rendering="geometricPrecision" text-rendering="geometricPrecision" image-rendering="optimizeQuality" fill-rule="evenodd" clip-rule="evenodd"
viewBox="0 0 29.4 52"
 xmlns:xlink="http://www.w3.org/1999/xlink"
 xmlns:xodm="http://www.corel.com/coreldraw/odm/2003">
 <g id="Layer_x0020_1">
  <metadata id="CorelCorpID_0Corel-Layer"/>
  <g id="_1551365065152">
   <path fill="#FEFEFE" d="M7.4 34.83c-0.78,-5.94 2.61,-6.78 7.12,-4.05 0.3,2.43 -0.06,4.96 -2.3,5.68 -2.45,0.78 -3.43,-0.58 -4.83,-1.63zm10.96 -16.57c3.99,-1.67 7.09,6.09 2.41,7.58 -5.3,1.69 -6.85,-5.72 -2.41,-7.58zm6.14 -4.78c-1.76,-1.08 -2.84,-4.15 1.83,-7.31l-0.75 -3.88c-0.59,-1.61 -0.15,-0.48 -0.54,-1.06 -0.79,1.85 -0.71,4.05 -1.81,6.34 -2.29,4.78 -4.77,5.77 -9.64,5.28 -2.77,-0.28 -2.64,0.88 -5.92,0.25 -2.56,-4.42 2.16,-7.09 -0.26,-12.05 -1.75,0.47 -1.38,1.16 -1.87,3.43 -0.32,1.46 -0.57,2.79 -0.89,4.15 -0.77,3.18 -1.59,5.03 -0.65,8.35 2.32,0.79 3.64,0.27 4.25,2.71 1.04,4.17 -1.65,2.43 -2.65,7.13 -1,4.68 -1.38,3.72 -2.64,7.28 1.93,2.37 1.33,1.79 2.34,5.12 0.68,2.22 2,2.41 3.38,3.7 2.33,2.17 4.56,6 6.28,7.89 3.37,-1.25 1.1,-0.85 0.35,-3.41 -0.62,-2.11 0.56,-3.54 1.67,-4.4 4.16,-1.24 2.37,2.35 6.12,-0.73 0.97,-0.8 1.37,-1.29 2.56,-2.02 1.79,-1.09 1.77,-0.45 2.31,-2.19 -1.74,0.56 -2.54,0.62 -4.13,0.18 -1.82,-3.65 -1.3,-5.21 1.67,-7.07 -1.33,-10.15 2,-9.45 2.11,-16.71l-3.13 -0.98z"/>
   <path fill="#EC268F" d="M27.62 14.45c-0.11,7.27 -3.44,6.57 -2.11,16.71 -2.97,1.86 -3.49,3.43 -1.67,7.07 1.59,0.44 2.39,0.38 4.13,-0.18 -0.54,1.74 -0.53,1.09 -2.31,2.19 -1.19,0.73 -1.59,1.21 -2.56,2.02 -3.74,3.09 -1.95,-0.5 -6.12,0.73 -1.11,0.86 -2.29,2.29 -1.67,4.4 0.76,2.56 3.03,2.15 -0.35,3.41 -1.72,-1.89 -3.95,-5.72 -6.28,-7.89 -1.38,-1.29 -2.7,-1.48 -3.38,-3.7 -1.02,-3.33 -0.41,-2.75 -2.34,-5.12 1.26,-3.57 1.64,-2.6 2.64,-7.28 1,-4.7 3.69,-2.96 2.65,-7.13 -0.61,-2.44 -1.93,-1.92 -4.25,-2.71 -0.95,-3.32 -0.12,-5.17 0.65,-8.35 0.33,-1.35 0.58,-2.68 0.89,-4.15 0.49,-2.26 0.12,-2.96 1.87,-3.43 2.42,4.96 -2.3,7.63 0.26,12.05 3.28,0.63 3.15,-0.52 5.92,-0.25 4.88,0.49 7.35,-0.5 9.64,-5.28 1.1,-2.29 1.02,-4.5 1.81,-6.34 0.38,0.58 -0.05,-0.55 0.54,1.06l0.75 3.88c-4.67,3.16 -3.59,6.22 -1.83,7.31l3.13 0.98zm-27.62 23.68c1.97,2.17 4.34,1.03 11.33,9.66 3.19,3.94 3.48,6.65 7.2,0.96 2.62,-4.01 7.07,-6.95 10.86,-9.73 -1.57,-7.74 -5.26,-9.37 -1.85,-18.58 1.86,-5.02 0.91,-16.37 -1.6,-20.38 -4.03,-0.17 -1.24,1.27 -3.41,6.38 -1,2.37 -2.57,4.59 -5.25,5.28 -8.35,2.16 -7.86,-5.43 -8.59,-11.64l-3.07 -0.07c-2.08,5.51 -3.94,14.18 -2.04,19.75 3.24,9.51 -1.86,11.44 -3.59,18.37z"/>
   <path fill="#EC268F" d="M18.35 18.26c-4.44,1.86 -2.89,9.26 2.41,7.58 4.68,-1.49 1.58,-9.25 -2.41,-7.58z"/>
   <path fill="#EC268F" d="M7.4 34.83c1.4,1.05 2.38,2.41 4.83,1.63 2.24,-0.71 2.59,-3.25 2.3,-5.68 -4.51,-2.72 -7.9,-1.89 -7.12,4.05z"/>
  </g>
 </g>
</svg>
