<?xml version="1.0" encoding="UTF-8"?>
<!DOCTYPE svg PUBLIC "-//W3C//DTD SVG 1.1//EN" "http://www.w3.org/Graphics/SVG/1.1/DTD/svg11.dtd">
<!-- Creator: CorelDRAW 2021 (64-Bit) -->
<svg xmlns="http://www.w3.org/2000/svg" xml:space="preserve" width="0.601906in" height="0.596587in" version="1.1" shape-rendering="geometricPrecision" text-rendering="geometricPrecision" image-rendering="optimizeQuality" fill-rule="evenodd" clip-rule="evenodd"
viewBox="0 0 321.18 318.35"
 xmlns:xlink="http://www.w3.org/1999/xlink"
 xmlns:xodm="http://www.corel.com/coreldraw/odm/2003">
 <g id="Layer_x0020_1">
  <metadata id="CorelCorpID_0Corel-Layer"/>
  <path fill="#EC268F" d="M288.06 116.28c-13.66,-2.41 -13.12,-2.36 -22.42,-10 -16.5,-13.56 2.26,-7.16 -18.97,-13.72 3.55,44.8 14.54,150.73 8.87,190 -44.56,47.22 -151.35,19.46 -201.64,0.43 -0.51,-33.72 1.91,-64.46 6.25,-97.91 3.36,-25.92 16.78,-77.47 10.05,-87.57 -7.74,-1.46 -10.51,15.93 -30.55,22.48 -7.24,-7.09 -23.52,-34.05 -27.97,-45.2 14.21,-17.89 48.16,-44.24 77.65,-53.6 39.72,27.97 100.24,42.53 138.14,-0.64 30.91,9.88 61.56,31.08 82,49.72 -4.54,16.49 -10.01,33.92 -21.4,46.01zm-68.31 -103.74c-18.5,42.7 -92.65,21.9 -120.44,3.36 17.52,-14.35 22.01,6.9 53.29,9.72 37.81,3.42 36.98,-16.69 67.15,-13.08zm-219.75 62.25c6.29,18.14 22.43,35.46 31.5,53.94 17.37,2.1 12.26,0.78 28.39,-5.13 -8.07,51.72 -19.78,110.01 -14.77,163.44 44.34,34.44 179.07,48.43 220.26,0.02 6.12,-32.15 -4.51,-132.13 -7.42,-170.54 20.2,7.38 16.16,9.89 37.53,13 8.67,-20.93 20.39,-39.44 25.7,-66.79 -22.47,-9.91 -44.45,-30.37 -74.39,-46 -71.94,-37.55 -33.16,1.23 -89.28,-1.65 -56.2,-2.88 -12.67,-34.39 -88.85,3.18 -31.47,15.52 -51.42,34.88 -68.66,56.51z"/>
 </g>
</svg>
